<?xml version="1.0" standalone="no"?>
<!DOCTYPE svg PUBLIC "-//W3C//DTD SVG 20010904//EN"
 "http://www.w3.org/TR/2001/REC-SVG-20010904/DTD/svg10.dtd">
<svg version="1.0" xmlns="http://www.w3.org/2000/svg"
 width="1000.000000pt" height="1950.000000pt" viewBox="0 0 1000.000000 1950.000000"
 preserveAspectRatio="xMidYMid meet">

<g transform="translate(0.000000,1950.000000) scale(0.100000,-0.100000)"
fill="#000000" stroke="none">
<path d="M6567 19415 c-21 -11 -39 -12 -75 -5 -30 5 -51 5 -59 -2 -7 -5 -45
-11 -85 -12 -93 -4 -204 -21 -243 -38 -16 -7 -50 -26 -74 -42 -25 -16 -88 -50
-141 -76 -65 -33 -117 -68 -165 -112 -39 -36 -95 -80 -125 -100 -54 -34 -130
-108 -182 -178 -15 -19 -46 -46 -69 -60 -23 -14 -67 -48 -98 -75 -31 -28 -65
-57 -76 -65 -11 -8 -45 -43 -74 -77 -30 -33 -63 -66 -75 -72 -32 -18 -66 -73
-60 -98 3 -12 -6 -59 -21 -105 -15 -46 -35 -114 -45 -153 -10 -38 -21 -77 -24
-85 -4 -9 -12 -51 -20 -95 -7 -44 -17 -89 -21 -99 -6 -14 -5 -17 3 -12 17 10
26 -19 13 -43 -9 -15 -7 -27 8 -53 17 -28 19 -42 12 -91 -4 -33 -14 -63 -22
-68 -10 -6 -5 -8 16 -6 27 2 30 -1 27 -25 -1 -16 2 -36 7 -47 8 -14 6 -24 -9
-41 -11 -12 -22 -30 -25 -40 -3 -10 -14 -20 -25 -23 -11 -3 -27 -21 -37 -41
-9 -20 -22 -36 -29 -36 -17 0 -44 -85 -44 -139 0 -58 48 -133 122 -192 124
-98 161 -161 162 -279 1 -128 -40 -249 -145 -425 -25 -42 -29 -57 -25 -98 6
-58 50 -117 106 -142 36 -16 81 -67 92 -105 3 -8 1 -26 -4 -39 -6 -17 -3 -32
12 -56 27 -44 70 -164 70 -196 0 -20 -23 -48 -98 -120 -123 -119 -131 -139
-130 -349 0 -80 4 -149 7 -155 13 -18 -18 -296 -49 -445 -37 -179 -42 -313
-17 -419 9 -41 25 -80 34 -86 13 -10 16 -27 15 -74 -2 -76 14 -78 41 -5 34 93
67 98 87 12 6 -29 14 -61 17 -70 8 -30 31 -20 43 20 22 69 60 109 60 62 0 -13
5 -18 15 -14 8 4 22 1 30 -6 28 -23 53 -2 71 58 17 57 53 143 65 152 3 3 16
23 28 45 40 74 83 140 110 170 15 17 33 42 39 58 6 15 18 27 27 27 18 0 18 -4
5 -30 -5 -11 -14 -29 -20 -40 -5 -11 -10 -25 -10 -31 0 -15 -61 -138 -72 -145
-4 -3 -8 -14 -8 -25 0 -11 -9 -37 -19 -57 -21 -40 -66 -138 -87 -189 -10 -23
-21 -33 -41 -35 -19 -2 -36 -16 -56 -45 -16 -24 -34 -43 -42 -43 -16 0 -68
-121 -68 -160 0 -16 12 -46 26 -68 15 -21 27 -43 27 -50 0 -6 9 -22 21 -34 73
-81 89 -103 89 -120 0 -73 100 86 120 190 5 26 36 111 69 189 34 78 61 145 61
150 0 9 55 156 70 188 6 11 21 58 35 105 22 73 126 352 172 460 51 119 125
250 160 283 18 17 33 37 33 44 0 7 15 30 34 50 18 21 39 55 46 77 14 44 30 33
30 -22 0 -39 17 -75 31 -66 5 3 19 27 32 52 25 54 65 96 125 132 23 14 42 31
42 39 0 15 14 12 73 -13 31 -14 37 -14 37 -2 0 8 -5 16 -12 18 -7 3 -9 11 -3
24 16 39 20 193 5 208 -13 13 -13 39 0 31 13 -8 13 38 0 51 -12 12 -3 44 13
44 6 0 20 9 32 20 12 12 44 24 71 29 48 7 94 29 94 43 0 5 5 8 11 8 5 0 7 -4
4 -10 -3 -5 1 -10 10 -10 9 0 13 4 10 10 -3 5 10 17 29 27 20 9 42 29 48 45 7
15 17 28 23 28 5 0 18 18 28 39 9 21 28 43 41 49 16 7 26 22 30 48 4 21 20 50
38 67 16 17 37 41 45 54 9 13 18 21 21 18 9 -8 42 27 42 45 0 24 11 32 26 19
15 -12 64 15 60 34 -1 7 -1 9 1 5 3 -5 11 -8 19 -8 9 0 13 4 10 9 -3 5 6 9 19
9 26 0 33 -12 14 -24 -8 -5 -6 -10 5 -16 9 -5 16 -18 16 -29 0 -12 8 -23 20
-26 10 -3 22 -14 25 -24 4 -10 13 -19 20 -19 8 0 17 -15 20 -37 4 -21 10 -47
15 -58 14 -34 18 -78 10 -101 -6 -16 -5 -26 6 -35 12 -9 13 -27 8 -85 -6 -63
-4 -74 9 -74 8 0 24 16 36 35 20 35 41 46 41 22 0 -7 -11 -29 -25 -49 -14 -20
-25 -39 -25 -42 0 -11 -102 -221 -115 -236 -7 -8 -15 -27 -19 -42 -3 -15 -12
-33 -19 -40 -7 -7 -18 -31 -24 -53 -7 -22 -18 -64 -27 -93 -8 -30 -31 -74 -50
-99 -20 -26 -36 -55 -36 -65 0 -10 -4 -18 -10 -18 -5 0 -10 -11 -10 -25 0 -14
-4 -25 -10 -25 -5 0 -10 -9 -10 -20 0 -11 -4 -20 -10 -20 -5 0 -10 -10 -10
-22 0 -13 -14 -49 -31 -81 -19 -36 -28 -65 -24 -77 5 -14 -3 -29 -24 -51 -17
-17 -31 -37 -31 -45 0 -8 -4 -14 -9 -14 -5 0 -9 -14 -9 -30 1 -17 -4 -36 -10
-42 -7 -7 -12 -22 -12 -34 0 -13 -7 -30 -16 -39 -9 -9 -14 -25 -11 -35 3 -11
2 -22 -3 -25 -4 -3 -11 -21 -14 -40 -4 -19 -11 -35 -17 -35 -5 0 -7 -11 -3
-25 4 -18 1 -27 -10 -31 -11 -4 -16 -16 -14 -33 2 -16 -2 -25 -10 -24 -6 2
-12 -6 -12 -16 0 -10 -7 -22 -16 -25 -11 -4 -14 -14 -9 -34 4 -18 -2 -45 -17
-77 -12 -28 -21 -61 -19 -74 2 -18 -6 -32 -30 -52 -27 -22 -32 -33 -31 -64 1
-21 -2 -43 -7 -49 -5 -6 -17 -44 -27 -84 -11 -43 -24 -74 -34 -77 -18 -6 -41
-52 -34 -70 3 -7 -7 -22 -23 -33 -18 -13 -29 -31 -31 -48 -1 -15 -7 -31 -13
-35 -7 -4 -9 -21 -7 -40 3 -19 1 -45 -5 -59 -27 -67 -38 -89 -48 -92 -12 -4
-58 -131 -59 -160 0 -10 -4 -18 -9 -18 -5 0 -11 -12 -14 -27 -3 -16 -19 -68
-36 -118 -17 -49 -42 -125 -54 -168 l-24 -79 24 -11 c12 -5 23 -14 23 -19 0
-4 7 -8 15 -8 31 0 75 -30 75 -51 0 -44 31 -88 68 -99 31 -8 39 -7 54 10 21
22 62 26 104 10 37 -14 114 -95 114 -119 0 -24 -31 -93 -46 -103 -6 -4 -16
-25 -24 -48 -13 -38 -32 -51 -45 -30 -3 6 -10 10 -16 10 -17 0 -9 -18 17 -35
23 -15 27 -15 43 -1 10 9 28 16 40 16 25 0 111 47 111 61 0 15 36 10 50 -6 7
-8 19 -15 28 -15 8 0 36 -22 62 -50 26 -28 56 -50 67 -50 28 0 76 -26 113 -60
18 -17 36 -30 41 -30 5 0 16 -12 26 -27 26 -41 42 -55 52 -48 6 3 26 -1 46 -9
27 -12 35 -21 35 -40 0 -22 5 -26 30 -26 17 0 39 -9 50 -20 11 -11 27 -20 35
-20 8 0 15 -4 15 -10 0 -5 7 -10 15 -10 8 0 15 -9 15 -19 0 -26 16 -35 24 -14
6 14 9 14 22 -5 17 -25 34 -29 34 -8 0 16 44 29 70 21 10 -3 20 -16 22 -28 3
-23 7 -24 108 -30 28 -2 37 3 45 21 5 12 16 22 24 22 25 0 121 -33 121 -42 0
-12 38 -10 45 2 9 14 35 -7 35 -26 0 -8 9 -14 20 -14 16 0 20 -7 20 -35 0 -19
5 -35 10 -35 6 0 10 -8 10 -18 0 -10 3 -21 6 -25 10 -9 34 4 34 19 0 19 50
123 63 131 7 4 8 0 3 -13 -5 -10 -10 -28 -13 -39 -3 -11 -14 -49 -25 -85 -11
-36 -24 -79 -29 -96 -5 -16 -12 -57 -15 -90 -7 -62 -23 -92 -63 -114 -18 -9
-25 -9 -31 0 -6 9 -9 9 -15 1 -4 -7 4 -22 17 -34 30 -29 34 -63 8 -70 -23 -6
-27 -37 -5 -37 8 0 15 -9 15 -20 0 -11 -5 -20 -11 -20 -18 0 -49 -44 -43 -62
6 -20 -14 -34 -29 -19 -6 6 -21 11 -34 11 -15 0 -21 4 -17 14 4 11 -2 14 -23
14 -16 -1 -39 4 -51 11 -13 7 -32 9 -43 6 -11 -4 -26 -2 -34 5 -9 7 -15 7 -19
1 -4 -6 -14 -7 -22 -4 -19 7 -36 -15 -28 -39 7 -24 -16 -56 -37 -51 -29 8 -30
39 -2 52 17 8 23 17 19 27 -3 9 -6 22 -6 30 0 19 -26 18 -50 -3 -21 -19 -27
-43 -9 -43 6 0 8 -8 4 -19 -7 -23 3 -51 20 -51 15 0 28 -28 19 -42 -4 -7 -10
-4 -16 6 -11 19 -34 21 -41 4 -4 -10 -7 -10 -18 0 -9 9 -10 12 -1 12 7 0 12 6
12 12 0 7 -10 2 -22 -11 -16 -16 -19 -25 -10 -28 20 -8 13 -33 -13 -45 -19 -8
-31 -8 -50 0 -15 7 -25 8 -25 2 0 -6 7 -10 17 -10 14 0 14 -2 -2 -20 -21 -24
-43 -26 -51 -5 -6 14 -41 29 -132 56 -24 7 -48 21 -53 31 -5 10 -20 18 -34 18
-37 0 -55 10 -71 41 -8 16 -18 28 -22 27 -14 -3 -82 31 -82 41 0 6 -12 11 -26
11 -16 0 -39 14 -63 38 -21 20 -48 44 -61 52 -12 8 -28 20 -34 25 -6 6 -56 41
-111 78 -56 37 -116 81 -135 98 -19 17 -51 41 -70 53 -19 13 -44 33 -54 45
-11 11 -27 21 -37 21 -10 0 -61 43 -113 95 -52 52 -103 95 -113 95 -31 0 -42
-14 -44 -55 -1 -22 -6 -53 -12 -68 -7 -20 -6 -34 2 -51 14 -26 9 -214 -7 -242
-10 -18 -5 -51 11 -71 5 -7 6 -21 2 -30 -25 -58 -51 -338 -33 -349 5 -4 5 -10
0 -17 -6 -7 -17 -66 -26 -132 -9 -66 -21 -151 -27 -190 -5 -38 -13 -88 -16
-110 -3 -22 -9 -45 -14 -50 -4 -6 -8 -39 -8 -73 0 -34 -2 -65 -5 -70 -3 -5 -7
-32 -10 -59 -3 -28 -17 -80 -32 -115 -14 -34 -30 -81 -35 -103 -4 -22 -21 -92
-37 -155 -19 -74 -34 -167 -41 -260 -6 -80 -15 -148 -20 -153 -8 -8 -44 66
-57 118 -3 17 -15 39 -24 50 -10 11 -26 36 -37 55 -68 127 -193 286 -166 213
6 -16 21 -39 91 -136 13 -18 31 -43 40 -56 9 -13 22 -28 27 -35 6 -6 11 -20
13 -31 18 -111 18 -117 5 -122 -7 -3 -13 -11 -13 -18 0 -8 -11 -27 -25 -43
-19 -22 -24 -39 -21 -63 2 -19 8 -34 13 -34 5 0 39 16 76 35 36 19 69 31 73
28 3 -4 -1 -62 -10 -130 -29 -232 -30 -267 -7 -352 28 -100 79 -174 194 -279
126 -114 176 -153 228 -177 64 -30 225 -136 246 -162 18 -22 144 -346 150
-386 3 -20 10 -46 16 -57 13 -25 79 -211 118 -335 16 -52 34 -104 39 -115 18
-42 63 -211 62 -235 0 -14 4 -30 10 -37 6 -8 6 -19 -1 -32 -7 -13 -8 -22 -1
-26 5 -3 10 -23 10 -44 0 -37 -2 -40 -51 -61 -29 -12 -67 -24 -86 -27 -29 -5
-32 -8 -18 -16 16 -9 161 -2 190 9 38 15 104 -112 144 -277 16 -68 43 -162 60
-209 16 -47 39 -121 50 -165 60 -230 169 -449 263 -529 70 -60 173 -71 328
-36 47 11 93 20 102 20 30 0 46 -41 62 -165 19 -138 40 -262 66 -390 10 -49
19 -106 19 -126 0 -19 7 -62 16 -94 8 -33 15 -69 15 -80 0 -12 3 -25 7 -29 4
-4 8 -35 10 -69 1 -34 6 -89 12 -122 6 -33 17 -121 26 -195 9 -74 20 -155 25
-180 6 -25 14 -102 20 -171 9 -121 36 -315 46 -330 2 -4 9 -56 15 -116 6 -59
19 -152 30 -207 11 -54 24 -148 30 -210 6 -61 17 -140 25 -175 13 -58 33 -184
70 -441 7 -52 14 -120 14 -150 0 -30 5 -73 11 -95 5 -22 16 -78 24 -125 8 -47
19 -110 24 -140 6 -30 20 -127 31 -215 11 -88 24 -187 29 -220 5 -33 14 -103
20 -155 6 -52 16 -125 21 -163 6 -37 10 -84 11 -105 0 -20 8 -59 17 -86 23
-68 59 -86 171 -86 169 0 282 59 297 155 6 43 -22 269 -46 365 -24 98 -70 371
-105 625 -27 197 -26 191 -48 320 -16 94 -20 135 -18 223 1 50 4 56 50 100 27
26 60 55 73 64 33 22 66 115 74 208 7 83 -5 198 -41 395 -13 72 -31 182 -40
245 -26 179 -74 406 -101 482 -14 38 -29 90 -34 116 -4 26 -20 112 -34 192
-36 209 -37 211 -51 260 -8 25 -21 104 -30 175 -15 120 -67 410 -116 650 -12
55 -29 152 -39 215 -11 63 -22 131 -25 150 -4 22 -2 41 7 52 15 21 325 179
418 214 36 14 94 40 130 58 36 19 106 52 155 74 50 22 110 49 135 60 25 11 79
32 120 45 164 56 258 95 293 121 20 16 37 31 37 35 0 4 23 30 50 58 39 40 50
59 50 84 0 34 -72 490 -91 574 -6 28 -19 76 -30 108 -10 31 -19 81 -19 110 0
30 -9 85 -20 123 -43 146 -50 171 -64 229 -7 33 -17 80 -21 104 -4 24 -13 58
-20 75 -6 17 -17 63 -23 101 -32 204 -55 323 -71 373 -22 67 -65 209 -116 382
-20 69 -47 161 -60 205 -13 44 -35 126 -50 183 -14 57 -32 120 -40 140 -18 46
-56 211 -85 360 -16 86 -18 122 -11 145 9 30 31 203 51 407 4 47 15 114 23
150 26 109 37 170 52 283 11 88 19 115 40 142 14 19 35 56 46 82 21 49 22 79
3 213 -5 39 -2 52 19 83 27 39 57 151 57 210 0 79 59 253 114 334 24 36 27 47
18 71 -7 21 -6 39 5 68 24 63 27 102 9 148 -23 59 -12 81 54 114 72 36 78 68
26 131 -41 49 -40 45 -22 74 20 31 13 118 -13 162 -30 52 -28 82 8 90 15 3 40
18 55 34 l26 28 -20 46 c-17 39 -20 64 -18 149 2 88 -1 110 -20 152 -34 75
-30 101 28 176 40 52 46 87 19 116 -22 24 -22 25 -6 72 21 61 51 284 43 317
-9 35 -35 20 -65 -38 -25 -48 -31 -131 -12 -166 13 -24 15 -141 2 -141 -10 0
-21 24 -21 48 0 8 -6 23 -14 31 -11 13 -12 33 -5 96 5 44 13 87 18 96 5 8 12
45 16 81 l7 66 -46 23 c-25 12 -46 27 -46 32 0 5 -7 4 -15 -3 -19 -16 -47 4
-38 27 4 10 2 14 -5 10 -13 -9 -58 84 -66 137 -3 21 0 48 6 59 8 16 8 22 -1
25 -13 4 -15 32 -2 32 5 0 17 -23 27 -50 10 -28 28 -57 41 -65 13 -9 23 -21
23 -28 0 -7 13 -28 30 -47 16 -19 29 -41 30 -47 0 -7 9 -13 21 -13 11 0 18 -4
15 -9 -4 -5 3 -7 15 -4 11 3 23 12 26 19 7 20 26 17 47 -7 15 -18 20 -19 27
-8 16 27 -7 262 -32 327 -5 13 -9 30 -9 38 0 9 -9 27 -20 41 -11 14 -20 36
-20 49 0 13 -4 24 -10 24 -9 0 -33 46 -45 88 -3 12 -10 22 -15 22 -14 0 -52
80 -56 115 -1 16 -3 30 -4 30 0 0 -3 20 -6 45 -10 100 -13 117 -33 167 -37 94
-75 154 -115 184 -30 21 -42 26 -48 16 -6 -9 -12 -9 -26 0 -10 6 -24 8 -31 4
-16 -11 -73 1 -78 16 -2 6 21 19 52 28 49 16 53 19 38 30 -19 13 -106 30 -134
26 -9 -1 -22 5 -29 14 -17 20 -51 20 -44 0 7 -18 16 -17 -131 -19 -112 -2
-152 5 -140 24 3 5 -3 11 -14 15 -11 3 -22 12 -25 20 -3 8 -21 17 -40 21 -20
3 -33 10 -30 15 10 17 166 8 337 -20 46 -8 51 -6 90 26 46 38 86 83 87 97 0 8
-51 4 -115 -10 -28 -6 -27 -3 25 46 67 63 46 61 -75 -7 -131 -73 -146 -71
-196 29 -17 33 -45 80 -63 106 -34 47 -56 115 -60 185 -2 23 -10 43 -21 51
-11 8 -16 19 -12 30 7 16 -5 44 -31 77 -11 14 -10 36 3 129 l17 112 -26 50
c-14 27 -26 61 -26 74 0 47 -56 148 -117 212 -63 66 -73 90 -73 177 0 22 -14
76 -31 120 -54 140 -54 141 -41 205 9 40 10 95 6 167 -12 176 -54 268 -191
412 -29 31 -53 60 -53 66 0 6 -13 29 -28 51 -36 48 -82 174 -82 219 0 35 -13
131 -31 240 -10 54 -42 132 -99 235 -10 19 -37 74 -59 122 -22 48 -66 120 -97
160 -56 71 -222 238 -236 238 -4 0 -33 22 -65 48 -32 27 -69 55 -83 62 -14 7
-45 30 -70 51 -59 48 -220 133 -290 152 -30 8 -93 18 -139 22 -47 3 -91 11
-98 17 -8 6 -32 8 -61 4 -40 -5 -50 -3 -65 14 -20 24 -33 25 -70 5z m-873
-1040 c11 -8 28 -13 38 -9 10 3 28 -2 40 -10 12 -9 37 -16 54 -16 17 0 37 -7
45 -16 7 -9 21 -13 34 -10 15 4 28 -1 41 -15 16 -17 16 -19 1 -13 -12 4 -17 1
-17 -10 0 -15 9 -26 45 -50 15 -11 17 -17 8 -28 -8 -9 -9 -19 -2 -28 7 -12 10
-11 15 7 7 24 12 23 108 -22 29 -14 68 -27 87 -31 55 -9 126 -45 137 -68 10
-23 120 -96 145 -96 25 0 100 -47 142 -89 21 -23 44 -41 50 -41 23 0 75 -83
75 -119 0 -91 44 -241 86 -290 28 -34 65 -137 59 -165 -5 -20 5 -39 60 -114
13 -18 21 -40 18 -48 -3 -9 0 -14 8 -12 9 2 14 -6 13 -22 -1 -14 2 -27 5 -30
4 -3 15 -25 25 -50 9 -25 24 -58 32 -73 8 -16 11 -33 8 -38 -3 -6 0 -16 6 -24
7 -8 9 -23 4 -37 -9 -28 -13 -60 -14 -115 0 -23 -9 -62 -20 -85 -11 -24 -20
-55 -20 -69 0 -15 -9 -46 -20 -71 -10 -24 -17 -53 -14 -64 4 -14 -7 -36 -30
-67 -20 -26 -36 -52 -36 -57 0 -6 -9 -10 -19 -10 -20 0 -31 -18 -31 -51 0 -10
-13 -28 -30 -41 -16 -12 -30 -28 -30 -35 0 -8 -13 -19 -30 -24 -16 -6 -30 -17
-30 -25 0 -8 -6 -17 -14 -20 -17 -6 -126 -104 -176 -156 -20 -21 -45 -38 -57
-38 -12 0 -28 -9 -36 -20 -8 -11 -16 -17 -19 -14 -4 3 -19 -1 -35 -9 -21 -11
-68 -14 -198 -13 -154 1 -174 3 -216 24 -25 12 -55 32 -67 45 -29 31 -76 129
-102 212 -36 116 -42 128 -95 185 -29 30 -66 76 -84 102 -45 68 -170 211 -192
222 -11 5 -22 21 -25 35 -3 14 -11 40 -17 56 -29 73 -2 388 38 442 13 17 14
17 20 1 11 -29 43 -21 61 13 21 41 29 124 14 134 -6 4 -40 -7 -74 -24 -35 -17
-68 -31 -73 -31 -10 0 -27 45 -38 96 -3 17 -22 55 -40 85 -19 29 -35 57 -35
62 0 5 30 6 69 2 38 -4 71 -3 74 2 12 20 -31 55 -78 64 -76 14 -81 23 -88 152
-3 61 -13 144 -22 182 -22 93 -17 235 9 264 13 14 26 19 42 15 13 -4 24 -2 24
3 0 34 94 93 147 93 7 0 20 11 29 25 19 30 86 65 122 65 15 0 26 7 29 20 6 23
30 25 57 5z m-354 -140 c0 -3 -9 -15 -20 -27 -20 -21 -20 -21 -20 -2 0 12 3
24 7 27 8 8 33 9 33 2z m2051 -735 c17 -10 28 -40 14 -40 -17 0 -65 32 -60 40
8 13 22 13 46 0z m40 -152 c18 -29 -13 -59 -53 -50 -22 5 -35 61 -17 72 14 9
60 -5 70 -22z m-225 -76 l-28 -27 7 35 c10 49 15 54 33 36 15 -15 14 -18 -12
-44z m-2244 11 c13 -32 44 -125 56 -170 2 -8 -3 -11 -12 -7 -26 10 -19 -5 19
-40 19 -19 35 -43 35 -54 0 -11 5 -24 10 -27 6 -3 10 -14 10 -24 0 -10 16 -31
35 -45 31 -24 35 -32 35 -74 0 -60 -9 -92 -25 -92 -7 0 -15 12 -18 28 -14 73
-30 120 -51 152 -13 19 -32 57 -42 83 -11 26 -37 69 -58 95 -45 55 -66 99 -66
142 0 74 47 95 72 33z m2405 -95 c-1 -18 4 -23 28 -28 l30 -6 -32 -19 c-27
-16 -32 -24 -30 -54 2 -30 -2 -36 -27 -45 -24 -9 -31 -7 -49 14 -16 20 -19 21
-13 5 17 -44 19 -87 5 -96 -46 -29 -99 6 -99 65 0 34 29 145 42 163 9 11 43
18 115 21 28 2 32 -1 30 -20z m-1956 -601 c-10 -9 -11 -8 -5 6 3 10 9 15 12
12 3 -3 0 -11 -7 -18z m3150 -145 c35 -51 54 -127 27 -104 -9 7 -18 25 -21 41
-4 16 -20 45 -37 64 -16 19 -30 40 -30 46 0 21 31 -2 61 -47z m-81 -158 c16
-48 4 -56 -15 -11 -18 42 -18 47 -6 47 5 0 15 -16 21 -36z m-3300 -494 c0 -5
-2 -10 -4 -10 -3 0 -8 5 -11 10 -3 6 -1 10 4 10 6 0 11 -4 11 -10z m3310 -332
c0 -8 109 -43 124 -40 4 2 14 -2 22 -9 8 -6 21 -8 30 -5 17 6 97 -18 122 -37
20 -15 14 -43 -13 -61 -14 -9 -25 -23 -25 -31 0 -31 -24 -65 -45 -65 -14 0
-28 -12 -43 -38 -11 -21 -32 -44 -46 -51 -14 -8 -35 -34 -48 -60 -13 -25 -34
-50 -46 -56 -12 -5 -22 -15 -22 -22 0 -7 -11 -24 -25 -39 -14 -15 -25 -35 -25
-45 0 -11 -4 -19 -9 -19 -5 0 -14 -13 -21 -30 -15 -36 -26 -37 -55 -5 -20 20
-30 23 -67 19 -23 -3 -54 -12 -66 -20 -24 -15 -24 -15 -17 14 5 24 2 30 -14
35 -12 3 -24 1 -27 -4 -7 -11 -64 -8 -64 3 0 5 -9 12 -20 16 -14 5 -17 11 -10
22 7 12 12 11 29 -4 17 -16 21 -16 26 -4 7 18 -11 68 -25 68 -5 0 -9 8 -8 18
3 33 -2 53 -11 47 -5 -3 -7 -21 -4 -40 6 -38 -9 -46 -48 -25 -25 14 -24 40 2
40 11 0 18 4 15 9 -6 9 6 84 19 114 4 10 3 17 -4 17 -6 0 -11 -6 -11 -14 0 -8
-7 -16 -15 -20 -8 -3 -15 -12 -15 -20 0 -13 -4 -14 -25 -4 -14 6 -25 19 -25
30 0 21 20 24 38 6 9 -9 12 -9 12 0 0 7 -4 12 -10 12 -5 0 -10 12 -10 26 0 15
-8 32 -17 39 -14 11 -15 15 -4 29 11 14 15 12 35 -12 13 -15 28 -36 34 -47 11
-20 11 -20 12 1 0 11 -4 24 -9 30 -5 5 -7 21 -4 37 4 22 8 25 20 16 10 -9 20
-9 39 0 28 13 64 15 64 4 -1 -15 -27 -43 -33 -36 -4 3 -7 2 -7 -4 0 -6 11 -14
25 -17 16 -4 25 -13 25 -26 0 -25 15 -25 41 -1 17 16 18 19 5 24 -9 4 -23 4
-31 1 -11 -5 -15 1 -15 21 0 27 1 27 18 12 10 -10 22 -14 25 -10 12 11 8 23
-8 23 -8 0 -15 7 -15 15 0 13 3 13 20 3 10 -7 23 -9 27 -5 12 12 -13 42 -31
39 -14 -3 -15 0 -7 16 7 14 18 18 36 15 27 -6 34 11 11 24 -22 12 -24 47 -3
51 13 3 17 -3 17 -23 0 -22 4 -26 22 -23 14 2 24 11 26 23 5 27 30 45 64 45
25 0 27 2 18 19 -7 14 -6 21 3 24 14 5 77 -23 77 -35z m-295 -78 c-3 -5 -13
-10 -21 -10 -8 0 -14 5 -14 10 0 6 9 10 21 10 11 0 17 -4 14 -10z m990 -110
c3 -5 1 -10 -4 -10 -6 0 -11 5 -11 10 0 6 2 10 4 10 3 0 8 -4 11 -10z m-100
-30 c-3 -5 -15 -10 -26 -10 -10 0 -19 5 -19 10 0 6 12 10 26 10 14 0 23 -4 19
-10z m-1222 -140 c3 -11 3 -20 0 -20 -10 0 -32 28 -26 34 11 11 21 6 26 -14z
m-2946 -42 c-3 -8 -6 -5 -6 6 -1 11 2 17 5 13 3 -3 4 -12 1 -19z m3078 -9 c4
-6 5 -12 2 -15 -7 -7 -37 7 -37 17 0 13 27 11 35 -2z m-225 -20 c0 -5 -7 -9
-15 -9 -9 0 -12 6 -9 15 6 15 24 11 24 -6z m874 -10 c-46 -52 -114 -119 -119
-119 -13 0 30 59 52 71 13 7 23 16 23 21 0 12 38 48 52 48 6 0 3 -9 -8 -21z
m-751 -22 c-3 -5 -10 -4 -15 1 -6 6 -7 16 -3 22 6 9 9 9 16 -1 4 -7 5 -17 2
-22z m60 -100 c12 6 38 8 57 6 32 -4 33 -3 18 10 -10 8 -18 19 -18 26 0 17 37
13 44 -5 8 -22 7 -26 -9 -48 -11 -15 -17 -16 -29 -7 -11 9 -15 8 -20 -4 -3 -8
-1 -15 5 -15 6 0 8 -7 5 -16 -9 -23 2 -54 20 -54 8 0 14 10 14 25 0 42 35 25
75 -38 14 -22 20 -25 31 -16 12 9 13 8 9 -5 -3 -9 -7 -23 -10 -32 -4 -14 -8
-14 -21 -3 -12 10 -17 10 -23 1 -4 -7 -15 -10 -24 -6 -11 4 -17 1 -17 -9 0 -8
7 -17 15 -21 8 -3 15 0 15 6 0 6 12 -1 26 -15 32 -32 26 -67 -11 -67 -14 0
-38 -14 -56 -31 -26 -25 -33 -41 -36 -82 -3 -37 -11 -57 -31 -78 -49 -50 -58
-64 -72 -107 -7 -23 -19 -47 -27 -53 -7 -6 -13 -21 -13 -32 0 -11 -13 -41 -29
-66 -16 -25 -32 -66 -36 -91 -4 -25 -13 -54 -20 -66 -8 -12 -17 -39 -20 -60
-4 -21 -14 -64 -22 -94 -8 -30 -19 -76 -23 -102 -5 -26 -14 -57 -21 -70 -7
-13 -14 -45 -15 -73 0 -27 -9 -99 -18 -160 -9 -60 -19 -123 -21 -140 -3 -16
-14 -112 -25 -212 -19 -166 -23 -185 -46 -210 -13 -14 -27 -24 -30 -21 -6 6
11 179 26 263 12 70 48 360 55 450 2 28 16 118 30 200 15 83 28 164 31 180 8
63 17 95 25 101 5 3 9 18 9 34 0 34 18 117 31 142 5 10 9 22 9 28 0 6 9 23 21
39 11 15 22 44 23 65 2 20 11 45 20 54 9 10 16 26 16 34 0 9 4 18 8 20 4 2 17
21 29 43 14 29 26 39 39 37 18 -3 18 -3 0 11 -19 14 -19 15 2 38 12 13 21 28
19 34 -2 5 3 17 12 25 22 21 51 86 51 114 0 13 -7 27 -16 30 -12 5 -15 14 -11
36 l6 30 -42 -6 c-23 -3 -55 -1 -71 4 -30 8 -30 8 -10 28 10 10 18 28 16 39
-2 16 4 13 28 -14 26 -29 34 -33 53 -24z m557 -21 c0 -8 -4 -17 -9 -21 -12 -7
-24 12 -16 25 9 15 25 12 25 -4z m-389 -12 c8 -10 21 -13 36 -9 30 7 29 0 -3
-32 -19 -19 -28 -23 -37 -14 -8 8 -8 11 1 11 7 0 12 5 12 11 0 6 -8 8 -19 4
-20 -6 -46 18 -36 35 9 15 31 12 46 -6z m79 -60 c0 -8 -4 -12 -10 -9 -5 3 -10
10 -10 16 0 5 5 9 10 9 6 0 10 -7 10 -16z m160 -5 c0 -5 -7 -9 -15 -9 -15 0
-20 12 -9 23 8 8 24 -1 24 -14z m-410 -9 c0 -11 -4 -20 -10 -20 -5 0 -10 9
-10 20 0 11 5 20 10 20 6 0 10 -9 10 -20z m510 -2 c0 -16 -3 -19 -11 -11 -6 6
-8 16 -5 22 11 17 16 13 16 -11z m-544 -48 c8 0 14 -10 14 -26 0 -25 -2 -26
-37 -19 -46 8 -53 12 -53 30 0 15 27 25 48 19 8 -2 20 -4 28 -4z m284 -60 c0
-5 -4 -10 -10 -10 -5 0 -10 5 -10 10 0 6 5 10 10 10 6 0 10 -4 10 -10z m189
-2829 c23 -27 41 -56 41 -64 0 -9 5 -19 10 -22 16 -10 12 -55 -5 -55 -14 0
-84 96 -98 133 -10 26 -27 11 -27 -24 0 -19 10 -39 26 -55 34 -35 26 -50 -24
-46 -50 4 -55 -10 -9 -29 17 -7 35 -18 39 -23 12 -17 10 -68 -2 -61 -6 4 -16
2 -23 -3 -7 -5 -29 -12 -49 -15 -49 -7 -54 4 -53 108 l0 80 33 3 c28 3 32 7
32 32 0 15 -4 30 -9 32 -4 2 -12 14 -16 27 -7 22 -5 24 23 18 17 -4 34 -2 37
3 12 20 34 9 74 -39z m173 -21 c25 0 64 -36 83 -77 31 -64 28 -407 -5 -533 -5
-19 -17 -68 -26 -108 -19 -78 -28 -77 -39 6 -5 38 -3 57 7 69 7 9 14 44 15 82
1 36 7 88 13 115 8 37 8 51 -1 56 -8 6 -8 9 0 14 26 16 11 100 -27 148 -10 12
-11 21 -3 37 6 11 11 30 11 42 0 25 -65 109 -84 109 -12 0 -66 74 -66 91 0 5
24 -4 53 -21 30 -16 61 -30 69 -30z m-372 -61 c0 -22 -4 -49 -10 -59 -5 -10
-14 -73 -19 -140 -5 -66 -11 -124 -14 -126 -3 -3 -14 7 -24 22 -13 21 -18 47
-18 99 0 62 4 77 28 112 17 25 30 59 34 91 7 60 23 60 23 1z m262 -101 c-7 -7
-12 -8 -12 -2 0 14 12 26 19 19 2 -3 -1 -11 -7 -17z m5 -80 c-3 -7 -5 -2 -5
12 0 14 2 19 5 13 2 -7 2 -19 0 -25z m-97 -92 c0 -12 6 -28 12 -34 10 -10 10
-15 -2 -22 -33 -21 -47 -12 -45 29 1 21 5 43 9 50 11 17 26 3 26 -23z m-27
-93 c-7 -2 -19 -2 -25 0 -7 3 -2 5 12 5 14 0 19 -2 13 -5z m-193 -95 c0 -16
-3 -19 -11 -11 -6 6 -8 16 -5 22 11 17 16 13 16 -11z m333 -58 c4 -16 4 -37 1
-45 -9 -24 -34 2 -34 35 0 48 24 56 33 10z m-356 -127 c-3 -10 -5 -2 -5 17 0
19 2 27 5 18 2 -10 2 -26 0 -35z m268 -33 c7 -11 -25 -70 -37 -70 -10 0 -10 8
-2 49 6 30 27 41 39 21z m75 -110 c0 -5 -7 -10 -15 -10 -8 0 -15 5 -15 10 0 6
7 10 15 10 8 0 15 -4 15 -10z m-940 -10 c0 -5 -2 -10 -4 -10 -3 0 -8 5 -11 10
-3 6 -1 10 4 10 6 0 11 -4 11 -10z m710 -5450 c0 -5 -4 -10 -10 -10 -5 0 -10
5 -10 10 0 6 5 10 10 10 6 0 10 -4 10 -10z m-6 -1485 c3 -8 1 -15 -4 -15 -6 0
-10 7 -10 15 0 8 2 15 4 15 2 0 6 -7 10 -15z"/>
<path d="M5930 17743 c-8 -3 -42 -18 -75 -33 -33 -15 -84 -35 -113 -46 -29
-10 -66 -30 -83 -44 -28 -23 -29 -27 -17 -52 7 -16 18 -28 24 -28 6 0 69 30
139 66 l129 65 169 -7 c156 -6 170 -6 164 10 -4 9 -1 16 5 16 8 0 7 5 -2 14
-9 9 -63 21 -142 30 -131 17 -172 18 -198 9z"/>
<path d="M6285 17472 c-6 -5 -30 -14 -55 -21 -25 -7 -85 -32 -135 -56 -112
-54 -166 -69 -221 -60 -37 5 -44 3 -54 -15 -6 -11 -15 -18 -21 -15 -13 9 -11
-29 3 -43 7 -7 26 -12 42 -12 17 0 57 -7 90 -14 44 -10 67 -11 90 -3 51 17
166 97 176 121 4 12 33 42 64 67 30 24 55 47 56 52 0 10 -24 9 -35 -1z"/>
<path d="M5648 16763 c-10 -2 -18 -14 -18 -25 0 -17 4 -19 23 -13 12 4 36 9
52 12 53 8 62 13 45 23 -15 10 -71 11 -102 3z"/>
<path d="M6080 16504 c-22 -10 -87 -19 -175 -24 -77 -5 -157 -15 -178 -23
l-38 -14 19 -24 c10 -13 21 -31 25 -41 7 -19 61 -16 139 9 66 20 77 9 33 -34
-20 -19 -34 -37 -32 -40 12 -12 148 73 175 109 7 9 32 27 57 39 29 14 45 29
45 41 0 22 -23 23 -70 2z m-110 -104 c0 -5 -4 -10 -10 -10 -5 0 -10 5 -10 10
0 6 5 10 10 10 6 0 10 -4 10 -10z"/>
<path d="M7287 17143 c-4 -3 -7 -13 -7 -21 0 -12 3 -12 15 -2 8 7 15 16 15 21
0 11 -14 12 -23 2z"/>
<path d="M8377 15413 c-13 -13 -7 -20 16 -18 32 4 33 4 17 15 -18 12 -24 12
-33 3z"/>
<path d="M8147 15164 c6 -15 23 -19 23 -5 0 5 -7 11 -14 14 -10 4 -13 1 -9 -9z"/>
<path d="M8210 15150 c0 -5 5 -10 10 -10 6 0 10 5 10 10 0 6 -4 10 -10 10 -5
0 -10 -4 -10 -10z"/>
<path d="M8270 15150 c0 -5 7 -10 15 -10 8 0 15 5 15 10 0 6 -7 10 -15 10 -8
0 -15 -4 -15 -10z"/>
<path d="M8297 15100 c7 -28 31 -46 44 -33 8 8 5 17 -10 32 -26 26 -41 27 -34
1z"/>
<path d="M8330 14979 c0 -5 5 -7 10 -4 6 3 10 8 10 11 0 2 -4 4 -10 4 -5 0
-10 -5 -10 -11z"/>
<path d="M8194 14944 c3 -9 6 -18 6 -20 0 -2 7 -4 15 -4 18 0 19 12 3 28 -17
17 -31 15 -24 -4z"/>
<path d="M8270 14908 c0 -9 5 -20 10 -23 13 -8 13 5 0 25 -8 13 -10 13 -10 -2z"/>
<path d="M8062 14788 c2 -6 10 -14 16 -16 7 -2 10 2 6 12 -7 18 -28 22 -22 4z"/>
<path d="M4827 17683 c-11 -10 -8 -43 3 -43 6 0 10 11 10 25 0 26 -2 29 -13
18z"/>
<path d="M4802 17545 c-7 -14 -8 -27 -2 -30 5 -3 12 6 16 20 9 35 0 41 -14 10z"/>
<path d="M2908 14190 c-21 -13 -65 -87 -69 -115 -2 -11 2 -30 9 -43 13 -23
207 -191 289 -249 42 -31 151 -119 218 -178 54 -47 61 -49 115 -19 58 31 80
27 80 -16 0 -27 3 -31 23 -28 20 3 22 -2 25 -49 3 -49 1 -54 -45 -107 -58 -67
-93 -112 -93 -121 0 -8 33 2 77 22 39 18 57 9 48 -24 -4 -19 -3 -23 7 -16 7 4
33 8 58 8 36 0 51 -6 73 -27 27 -28 64 -36 82 -19 6 5 27 14 48 21 20 6 37 15
37 20 0 5 -14 18 -31 30 -20 15 -29 29 -27 44 3 24 -5 23 267 13 138 -5 171
-3 171 12 0 4 -12 14 -27 22 -16 7 -57 32 -93 54 -36 23 -102 64 -147 90 -45
27 -103 69 -129 92 -46 43 -47 44 -39 91 4 26 6 72 6 102 -1 49 -5 58 -32 80
-17 14 -84 71 -147 128 -140 124 -203 157 -321 172 -135 16 -413 23 -433 10z
m117 -210 c15 -16 15 -20 3 -20 -8 0 -23 9 -33 20 -15 16 -15 20 -3 20 8 0 23
-9 33 -20z m645 -65 c13 -14 21 -28 18 -31 -9 -9 -58 27 -58 42 0 21 14 17 40
-11z m-490 -76 c0 -6 -13 -2 -30 8 -16 9 -30 23 -30 31 0 9 9 7 30 -8 17 -12
30 -26 30 -31z"/>
<path d="M9537 14135 c3 -8 9 -12 14 -9 12 7 11 11 -5 17 -10 4 -13 1 -9 -8z"/>
<path d="M4800 13766 c0 -8 -3 -21 -6 -29 -3 -8 2 -17 12 -21 23 -9 25 -4 18
32 -6 32 -24 45 -24 18z"/>
<path d="M5310 13380 c19 -16 41 -30 48 -30 6 0 12 -7 12 -15 0 -8 9 -15 20
-15 11 0 20 -4 20 -10 0 -5 8 -10 18 -11 11 -1 9 -3 -7 -8 -35 -10 -35 -23 -1
-66 16 -21 30 -44 30 -51 0 -8 4 -14 8 -14 4 0 33 -22 63 -50 29 -27 57 -50
62 -50 4 0 7 -9 7 -19 0 -11 4 -22 9 -26 5 -3 17 -27 26 -55 20 -60 66 -109
99 -103 20 4 53 -19 50 -36 -2 -14 22 -41 36 -41 9 0 21 -13 27 -30 8 -22 18
-30 35 -30 13 0 29 -5 36 -12 9 -9 16 -7 32 7 11 10 21 14 21 9 1 -5 2 -16 3
-24 1 -10 10 -14 26 -12 14 1 30 -4 35 -12 9 -12 15 -12 43 0 18 7 32 20 32
29 0 8 5 15 10 15 6 0 10 -7 10 -16 0 -14 3 -14 15 -4 26 22 17 45 -27 69 -24
13 -71 38 -105 56 -157 85 -301 204 -421 351 -76 93 -155 164 -182 164 -7 0
-30 16 -53 35 -22 19 -48 35 -56 35 -10 0 -3 -11 19 -30z"/>
<path d="M4115 13106 c-88 -32 -206 -116 -244 -172 -17 -26 -31 -51 -31 -56 0
-16 40 -8 49 11 15 28 41 34 62 15 24 -22 24 -33 -3 -61 -28 -30 -17 -39 31
-25 21 7 47 12 57 12 11 0 55 18 99 40 44 22 109 51 145 65 36 14 88 35 115
45 28 11 63 20 78 20 39 0 86 -48 81 -81 -8 -46 1 -48 160 -42 l148 6 -6 36
c-10 61 -35 83 -133 117 -49 17 -100 37 -114 44 -14 8 -68 15 -127 17 -56 2
-141 10 -189 18 -103 18 -103 18 -178 -9z"/>
<path d="M4215 12658 c-16 -6 -48 -22 -69 -36 -32 -20 -36 -26 -23 -33 20 -11
162 44 162 63 0 17 -32 20 -70 6z"/>
<path d="M4635 12624 c-22 -9 -50 -18 -63 -21 -13 -3 -26 -12 -29 -19 -10 -26
-144 -91 -308 -150 -14 -5 5 -11 60 -20 44 -7 80 -13 81 -13 0 -1 0 -16 -1
-33 -1 -18 3 -41 9 -50 8 -13 6 -25 -6 -46 -13 -21 -14 -32 -6 -40 6 -6 13
-46 15 -89 3 -43 9 -90 15 -105 8 -22 7 -31 -6 -43 -9 -9 -14 -26 -12 -38 3
-12 7 -34 10 -49 4 -15 1 -30 -4 -33 -6 -4 -1 -14 12 -25 13 -11 18 -19 12
-20 -14 0 -135 118 -184 180 -19 24 -58 89 -85 144 -28 55 -57 102 -64 104
-11 4 -12 -1 -7 -19 19 -62 19 -69 -2 -69 -30 0 -35 -28 -12 -72 13 -25 18
-48 14 -64 -5 -18 0 -34 15 -54 11 -16 21 -33 21 -39 0 -17 143 -162 179 -181
20 -10 47 -30 60 -44 14 -14 30 -26 37 -26 15 0 52 49 75 100 9 19 45 67 80
107 79 89 101 118 124 163 10 19 20 29 22 22 3 -6 -25 -68 -61 -137 -36 -69
-66 -132 -66 -139 0 -8 -9 -24 -20 -37 -11 -13 -36 -76 -56 -139 -34 -106 -69
-180 -94 -195 -5 -3 -10 -17 -10 -30 0 -13 -5 -27 -10 -30 -24 -15 -52 -91
-51 -138 1 -31 -5 -60 -18 -85 -12 -20 -26 -50 -32 -67 -9 -26 -12 -28 -20
-13 -5 9 -10 44 -10 78 -1 35 -6 60 -12 60 -6 0 -19 7 -29 16 -24 23 -34 13
-103 -104 -32 -53 -61 -99 -65 -102 -4 -3 -36 -48 -71 -100 -70 -105 -106
-177 -173 -350 -25 -63 -56 -141 -70 -173 -14 -32 -26 -63 -26 -69 0 -8 48 -9
171 -4 187 8 716 -11 736 -26 6 -5 48 -11 93 -14 44 -2 100 -9 123 -15 23 -6
77 -17 121 -24 43 -7 81 -17 85 -23 3 -5 24 -13 46 -17 22 -4 46 -12 53 -18 9
-7 24 -7 48 2 18 7 38 10 43 6 5 -3 12 -1 16 4 6 11 36 3 47 -13 4 -6 11 -11
15 -12 4 0 21 -6 36 -12 16 -7 32 -12 37 -12 5 0 14 -9 20 -20 6 -11 22 -23
35 -26 15 -4 25 -13 25 -25 0 -10 11 -24 24 -31 14 -7 35 -28 48 -45 63 -88
140 -183 149 -183 13 0 11 16 -6 53 l-16 32 20 -22 c38 -44 56 -24 20 21 -15
20 -24 24 -29 16 -11 -18 -27 -4 -50 41 -24 46 -115 153 -220 260 -53 54 -94
85 -141 107 -64 31 -231 72 -290 72 -35 0 -46 16 -16 24 56 15 153 5 235 -23
90 -31 131 -57 203 -124 45 -43 52 -43 73 -9 4 7 -5 42 -20 80 -24 61 -26 75
-20 157 3 50 17 128 30 175 33 114 54 187 68 235 13 43 61 121 88 145 15 13
19 39 23 164 l4 150 -32 65 c-20 39 -36 90 -40 125 -9 81 -15 92 -79 159 -91
95 -166 219 -217 360 -47 130 -99 290 -99 306 0 8 -7 35 -16 58 -12 32 -24 45
-43 50 -34 8 -138 60 -146 73 -3 5 -15 10 -25 10 -10 0 -60 14 -110 30 -104
34 -119 35 -175 14z"/>
<path d="M6332 12588 c-18 -18 -14 -49 13 -97 14 -23 25 -49 25 -57 0 -14 49
-64 64 -64 5 0 15 8 21 17 13 17 14 17 32 0 21 -19 63 -23 63 -7 0 6 -10 15
-22 20 -13 6 -31 15 -40 22 -14 10 -20 9 -31 -6 -10 -13 -20 -16 -35 -12 -20
7 -21 12 -16 59 5 47 3 54 -20 76 -14 14 -26 30 -26 37 0 19 -15 25 -28 12z"/>
<path d="M4450 12579 c0 -5 5 -7 10 -4 6 3 10 8 10 11 0 2 -4 4 -10 4 -5 0
-10 -5 -10 -11z"/>
<path d="M6455 12306 c36 -32 55 -37 55 -17 0 12 -39 36 -70 45 -21 6 -19 2
15 -28z"/>
<path d="M6330 12255 c0 -9 5 -15 11 -13 6 2 11 8 11 13 0 5 -5 11 -11 13 -6
2 -11 -4 -11 -13z"/>
<path d="M6440 12218 c-23 -39 -25 -58 -6 -58 15 0 58 74 49 84 -13 12 -24 5
-43 -26z"/>
<path d="M6512 12217 c-31 -33 -27 -43 5 -13 15 14 25 28 22 31 -3 3 -15 -5
-27 -18z"/>
<path d="M6330 12207 c0 -20 47 -60 60 -52 8 5 3 16 -16 36 -30 32 -44 36 -44
16z"/>
<path d="M6217 12133 c-15 -14 -6 -28 18 -28 28 0 31 5 13 23 -14 14 -22 15
-31 5z"/>
<path d="M6446 12121 c-4 -7 -5 -15 -2 -18 9 -9 19 4 14 18 -4 11 -6 11 -12 0z"/>
<path d="M6420 12079 c0 -5 5 -7 10 -4 6 3 10 8 10 11 0 2 -4 4 -10 4 -5 0
-10 -5 -10 -11z"/>
<path d="M6275 12030 c17 -19 45 -27 45 -14 0 11 -34 33 -49 34 -11 0 -10 -5
4 -20z"/>
<path d="M6340 12042 c0 -5 7 -15 15 -22 8 -7 15 -8 15 -2 0 5 -7 15 -15 22
-8 7 -15 8 -15 2z"/>
<path d="M6079 11924 c-11 -13 -8 -20 17 -44 22 -20 38 -27 56 -23 14 3 29 0
32 -6 10 -15 43 -14 48 1 5 14 -35 38 -62 38 -10 0 -28 11 -41 25 -28 29 -32
30 -50 9z"/>
<path d="M5503 11896 c-10 -21 -13 -41 -8 -53 5 -10 8 -21 7 -25 -3 -13 17
-58 25 -58 12 0 33 74 33 113 0 31 -14 57 -32 57 -5 0 -16 -15 -25 -34z"/>
<path d="M8017 11694 c-8 -8 3 -34 14 -34 5 0 9 9 9 20 0 19 -11 26 -23 14z"/>
<path d="M7917 11393 c-12 -11 -8 -23 8 -23 8 0 15 7 15 15 0 16 -12 20 -23 8z"/>
<path d="M7860 11220 c0 -5 5 -10 10 -10 6 0 10 5 10 10 0 6 -4 10 -10 10 -5
0 -10 -4 -10 -10z"/>
<path d="M5895 10928 c-44 -22 -114 -148 -115 -208 0 -14 -7 -47 -15 -75 -9
-27 -24 -103 -35 -169 -16 -95 -18 -132 -10 -185 18 -119 31 -137 26 -36 -5
88 13 266 32 335 18 62 60 194 71 222 5 15 27 45 47 68 38 41 37 67 -1 48z"/>
<path d="M5901 10304 c0 -11 3 -14 6 -6 3 7 2 16 -1 19 -3 4 -6 -2 -5 -13z"/>
<path d="M5525 9780 c-7 -12 2 -30 16 -30 12 0 12 27 0 35 -5 3 -12 1 -16 -5z"/>
<path d="M5460 9548 c0 -9 5 -20 10 -23 13 -8 13 5 0 25 -8 13 -10 13 -10 -2z"/>
<path d="M5480 9490 c0 -11 4 -20 9 -20 5 0 7 9 4 20 -3 11 -7 20 -9 20 -2 0
-4 -9 -4 -20z"/>
<path d="M5341 9474 c0 -11 3 -14 6 -6 3 7 2 16 -1 19 -3 4 -6 -2 -5 -13z"/>
<path d="M5270 9458 c0 -4 5 -20 11 -35 6 -15 15 -38 20 -50 5 -13 13 -33 18
-45 5 -13 14 -36 20 -51 15 -38 14 -57 -4 -57 -8 0 -15 5 -15 11 0 17 -39 97
-51 105 -9 5 -10 -1 -5 -22 15 -64 18 -104 9 -104 -14 0 -33 22 -34 40 0 8
-11 38 -25 65 l-24 50 6 -50 c3 -27 10 -66 15 -85 14 -55 11 -70 -17 -82 -20
-9 -27 -9 -34 1 -6 11 -14 11 -40 -3 -18 -9 -37 -16 -42 -16 -5 0 -20 -11 -34
-25 -17 -17 -36 -25 -57 -25 -18 1 -53 -1 -78 -5 -25 -3 -58 -1 -74 5 -24 9
-31 7 -50 -10 -25 -24 -55 -26 -55 -5 0 16 -36 21 -42 6 -1 -4 -14 -12 -26
-16 -21 -6 -23 -4 -17 14 4 15 2 21 -9 21 -8 0 -17 -9 -21 -19 -6 -21 -61 -45
-78 -34 -6 3 -7 1 -3 -5 9 -16 -15 -52 -36 -52 -9 0 -21 -7 -26 -16 -6 -12
-17 -15 -32 -11 -16 4 -23 1 -27 -11 -2 -10 -19 -24 -36 -32 -18 -7 -38 -22
-45 -32 -8 -11 -26 -18 -48 -18 -19 0 -34 -3 -34 -7 -1 -15 -66 -83 -80 -83
-7 0 -23 -9 -35 -20 -11 -11 -30 -21 -41 -23 -11 -1 -29 -12 -41 -24 -12 -12
-40 -27 -61 -33 -22 -5 -45 -17 -52 -25 -7 -8 -20 -15 -29 -15 -15 0 -48 -15
-131 -59 -27 -14 -40 -16 -57 -8 -16 7 -30 7 -46 0 -49 -24 -57 -23 -92 13
-20 19 -43 53 -52 75 -8 22 -21 38 -27 36 -22 -7 -17 -38 13 -73 17 -19 31
-41 31 -50 0 -8 11 -36 24 -62 13 -26 29 -72 36 -102 7 -30 25 -95 41 -145 63
-198 88 -427 70 -625 -13 -135 -40 -305 -70 -440 -11 -47 -25 -112 -31 -145
-14 -72 -136 -451 -155 -481 -21 -32 -43 -129 -38 -158 4 -17 -1 -34 -11 -44
-20 -23 -40 -109 -66 -282 -12 -74 -34 -180 -50 -235 -30 -106 -60 -261 -79
-410 -7 -49 -16 -103 -21 -120 -5 -16 -9 -82 -9 -145 -1 -106 0 -113 15 -95
10 13 13 31 9 52 -5 30 -4 33 17 30 13 -1 26 -8 29 -16 3 -7 21 -14 41 -16
l36 -2 5 221 c6 258 17 365 53 496 15 52 30 133 35 180 4 47 13 108 18 135 6
28 15 97 20 155 9 95 12 107 36 126 21 17 27 33 35 90 8 66 33 173 65 280 8
28 15 61 15 73 0 12 9 54 19 94 49 187 98 478 113 666 13 169 4 338 -27 530
-28 167 -21 193 57 225 20 9 60 30 90 47 29 17 70 37 90 45 20 7 133 65 250
130 117 64 220 121 228 125 8 4 66 33 129 64 63 31 164 85 225 119 61 35 183
98 271 140 258 123 305 149 305 168 0 9 -4 20 -10 23 -5 3 -10 14 -10 24 0 21
-46 137 -66 165 -8 11 -14 17 -14 14z m-2020 -4238 c0 -5 -7 -7 -15 -4 -8 4
-12 10 -9 15 6 11 24 2 24 -11z m65 -68 c-8 -8 -38 11 -43 26 -2 7 6 12 17 12
15 0 22 7 23 23 1 12 3 5 5 -17 3 -21 2 -41 -2 -44z"/>
<path d="M5360 9435 c0 -11 42 -187 47 -194 1 -2 9 -1 17 2 12 5 10 19 -13 84
-27 78 -50 127 -51 108z"/>
<path d="M5446 9407 c5 -70 18 -119 31 -124 24 -9 25 3 3 76 -23 77 -38 98
-34 48z"/>
<path d="M4750 9415 c0 -5 5 -17 10 -25 5 -8 10 -10 10 -5 0 6 -5 17 -10 25
-5 8 -10 11 -10 5z"/>
<path d="M5500 9413 c0 -8 18 -78 26 -102 3 -10 7 -11 18 -2 12 10 11 19 -6
62 -18 42 -38 65 -38 42z"/>
<path d="M5570 9380 c0 -28 4 -40 14 -40 23 0 29 19 16 51 -17 41 -30 36 -30
-11z"/>
<path d="M3460 8750 c0 -5 5 -10 11 -10 5 0 7 5 4 10 -3 6 -8 10 -11 10 -2 0
-4 -4 -4 -10z"/>
<path d="M5922 6810 c-35 -10 -69 -24 -77 -30 -7 -6 -15 -36 -18 -68 -5 -65
-31 -222 -53 -332 -8 -41 -24 -118 -34 -170 -11 -52 -31 -144 -45 -205 -15
-60 -29 -132 -31 -160 -3 -27 -12 -64 -20 -82 -8 -17 -14 -37 -14 -45 0 -7
-12 -58 -26 -113 -14 -55 -36 -149 -49 -210 -13 -60 -34 -150 -45 -200 -12
-49 -27 -121 -35 -160 -7 -38 -26 -126 -43 -195 -16 -69 -33 -145 -36 -170
-11 -68 -55 -275 -78 -360 -11 -41 -24 -97 -28 -125 -5 -27 -15 -77 -24 -110
-9 -32 -16 -66 -16 -75 0 -8 -13 -64 -29 -125 -30 -113 -83 -331 -102 -420 -5
-27 -14 -66 -19 -85 -5 -19 -22 -96 -39 -170 -16 -74 -41 -178 -55 -230 -14
-52 -26 -104 -26 -115 0 -11 -11 -67 -25 -125 -13 -58 -45 -199 -70 -313 -26
-115 -48 -214 -51 -220 -2 -7 -17 -75 -33 -152 -17 -77 -41 -194 -55 -259 -33
-150 -43 -294 -24 -318 14 -20 222 -78 276 -78 64 0 121 47 151 124 11 28 31
119 45 202 14 84 30 164 36 179 5 14 10 39 10 56 0 38 48 287 62 319 6 14 23
84 39 155 16 72 38 164 48 205 11 41 25 109 32 150 14 87 43 222 57 265 6 17
18 53 27 80 10 28 24 79 31 115 26 124 37 176 65 290 15 64 42 177 58 252 17
75 37 152 45 170 28 66 48 145 56 228 5 47 16 117 25 157 8 40 20 107 26 150
10 73 23 141 84 418 13 61 34 157 46 215 12 58 36 173 55 255 18 83 36 168 40
190 3 22 17 85 29 140 13 55 31 134 40 175 18 85 58 263 82 360 9 36 28 126
44 200 15 74 40 174 54 223 15 48 25 93 22 100 -3 8 -40 19 -94 27 -48 7 -108
19 -133 26 -58 18 -81 17 -158 -6z"/>
<path d="M3982 6395 c6 -14 19 -25 30 -25 25 0 23 16 -4 34 -32 23 -39 20 -26
-9z"/>
<path d="M3840 6393 c0 -17 16 -32 43 -38 28 -8 36 5 15 23 -19 14 -58 25 -58
15z"/>
<path d="M3950 6340 c-21 -21 -27 -60 -11 -60 22 0 64 47 58 63 -8 22 -23 21
-47 -3z"/>
<path d="M1560 5330 c-16 -29 -7 -35 29 -19 34 15 36 32 3 37 -13 2 -25 -5
-32 -18z"/>
<path d="M1668 5317 c24 -7 36 -7 44 1 9 9 1 12 -32 11 l-45 -1 33 -11z"/>
<path d="M1740 5309 c0 -4 5 -11 10 -14 19 -12 11 -53 -11 -60 -17 -6 -20 -12
-15 -33 4 -15 9 -39 11 -55 6 -38 33 -87 51 -94 25 -9 38 14 35 63 -1 25 2 51
9 59 7 9 8 15 0 20 -18 11 -10 39 16 58 33 24 54 15 54 -22 0 -37 10 -62 21
-55 5 3 9 13 9 23 0 24 31 51 61 51 23 1 24 1 4 16 -33 25 -142 53 -200 52
-30 -1 -55 -5 -55 -9z"/>
<path d="M3172 4990 c0 -14 2 -19 5 -12 2 6 2 18 0 25 -3 6 -5 1 -5 -13z"/>
<path d="M2776 4903 c-3 -3 0 -11 7 -17 24 -23 115 -86 124 -86 6 0 18 -9 28
-20 10 -11 24 -20 31 -20 36 0 70 -100 43 -127 -7 -7 -16 -36 -21 -65 -5 -29
-13 -73 -17 -97 -5 -23 -14 -47 -22 -52 -10 -6 -10 -9 -1 -9 24 0 11 -19 -18
-25 -21 -5 -39 -2 -56 10 -15 9 -35 15 -45 12 -14 -4 -19 0 -19 14 0 13 -7 19
-24 19 -13 0 -29 7 -36 15 -7 8 -16 12 -21 9 -5 -3 -9 1 -9 8 0 7 -12 24 -27
38 l-26 25 5 -28 c3 -16 1 -41 -5 -57 -8 -22 -7 -32 10 -56 15 -22 18 -37 13
-61 -6 -28 -4 -32 14 -35 14 -2 20 -10 19 -23 -2 -23 19 -39 57 -44 5 0 7 -8
3 -17 -6 -15 13 -89 29 -110 4 -6 6 -20 3 -32 -2 -12 0 -22 5 -22 5 0 7 -10 4
-22 -2 -13 -6 -49 -9 -80 -3 -43 -1 -58 9 -58 18 0 103 66 117 91 6 13 16 18
26 15 10 -4 13 -2 10 8 -4 9 0 12 12 9 9 -2 38 5 64 16 45 19 46 22 41 53 -4
18 -13 53 -22 78 -20 59 -29 398 -13 485 11 57 11 61 -11 78 -59 48 -193 139
-214 147 -13 5 -24 14 -24 19 0 11 -26 22 -34 14z m-66 -443 c0 -5 -4 -10 -10
-10 -5 0 -10 5 -10 10 0 6 5 10 10 10 6 0 10 -4 10 -10z m240 -200 c0 -5 -9
-10 -20 -10 -11 0 -20 5 -20 10 0 6 9 10 20 10 11 0 20 -4 20 -10z m70 -230
c0 -5 -7 -10 -16 -10 -8 0 -12 5 -9 10 3 6 10 10 16 10 5 0 9 -4 9 -10z"/>
<path d="M2570 4339 c0 -5 5 -7 10 -4 6 3 10 8 10 11 0 2 -4 4 -10 4 -5 0 -10
-5 -10 -11z"/>
<path d="M3636 3401 c-4 -7 -5 -15 -2 -18 9 -9 19 4 14 18 -4 11 -6 11 -12 0z"/>
<path d="M3594 3033 c3 -21 6 -48 6 -60 0 -13 5 -23 10 -23 11 0 13 42 4 89
-9 45 -28 39 -20 -6z"/>
<path d="M224 2688 c3 -17 12 -38 19 -46 6 -8 11 -23 9 -32 -3 -20 50 -80 56
-62 5 17 29 15 40 -5 9 -16 11 -16 36 0 14 9 29 17 33 17 4 0 2 -4 -4 -8 -11
-7 -20 -33 -22 -66 -1 -6 -14 2 -29 17 -48 46 -46 30 2 -19 25 -25 51 -42 56
-39 16 10 60 -23 60 -44 0 -13 13 -24 40 -35 22 -9 40 -21 40 -28 1 -13 28
-38 110 -103 25 -19 51 -40 57 -45 23 -19 105 -50 115 -44 5 3 18 -2 28 -11
19 -17 135 -40 185 -36 81 7 355 -6 386 -18 21 -7 173 -16 219 -12 12 1 12 3
-1 17 -15 15 -48 25 -131 43 -20 5 -58 26 -85 48 -26 21 -68 48 -93 58 -25 10
-67 36 -94 57 -27 21 -56 38 -65 38 -10 0 -31 16 -48 35 -23 26 -39 35 -63 35
-18 0 -43 9 -57 20 -29 23 -49 26 -57 8 -3 -10 -8 -9 -15 3 -9 14 -24 16 -76
14 -59 -3 -65 -2 -65 16 0 29 -46 25 -66 -6 -9 -14 -22 -25 -29 -25 -7 0 -15
-7 -19 -15 -3 -8 -10 -15 -16 -15 -5 0 -10 7 -10 15 0 8 7 15 15 15 8 0 15 6
15 14 0 7 10 20 23 29 22 15 22 15 -17 31 -45 19 -56 20 -56 6 0 -5 7 -10 16
-10 13 0 15 -6 9 -27 -3 -16 -10 -32 -15 -37 -13 -13 -40 1 -40 21 0 11 -12
23 -29 30 -26 9 -31 8 -55 -20 -26 -29 -27 -29 -46 -12 -21 19 -27 55 -10 55
18 0 10 23 -17 52 -15 15 -21 28 -15 28 7 0 12 5 12 11 0 7 -9 9 -22 6 -26 -7
-48 8 -48 34 0 11 -4 19 -10 19 -5 0 -10 -9 -10 -20 0 -11 -5 -20 -11 -20 -8
0 -10 12 -6 35 5 32 3 35 -17 35 -13 0 -40 7 -59 15 -53 22 -60 20 -53 -17z
m636 -393 c0 -8 -6 -15 -14 -15 -8 0 -16 7 -20 15 -4 10 1 15 14 15 11 0 20
-7 20 -15z"/>
<path d="M3930 2699 c0 -7 9 -46 20 -86 17 -58 19 -80 11 -110 -17 -64 -105
-136 -211 -174 -19 -6 -71 -29 -115 -51 -65 -31 -93 -39 -148 -41 -72 -2 -94
10 -77 43 17 33 -4 43 -75 38 -62 -5 -93 -16 -70 -24 11 -4 9 -41 -15 -324
-11 -119 -34 -229 -51 -240 -4 -3 -9 -34 -10 -70 -2 -36 -9 -75 -17 -87 -12
-20 -12 -30 -1 -69 15 -51 35 -64 98 -64 53 0 76 29 102 130 12 47 28 92 34
100 6 9 10 43 9 82 -3 79 19 147 64 195 31 34 58 44 48 18 -4 -12 3 -15 34
-15 47 0 56 -25 14 -40 -42 -16 -74 -60 -44 -60 13 0 6 -70 -9 -99 -15 -27
-14 -30 11 -40 15 -5 27 -4 36 5 24 25 52 17 52 -13 l0 -28 20 25 c11 14 23
34 26 45 4 11 24 58 45 103 22 46 39 86 39 88 0 2 14 32 30 66 17 34 28 70 24
80 -3 12 -1 16 8 13 13 -5 44 48 86 145 11 25 33 78 51 118 35 82 61 179 61
232 0 42 -38 113 -63 118 -9 2 -17 -2 -17 -9z m-149 -657 c-6 -2 -11 -11 -12
-20 0 -9 -3 -12 -5 -6 -3 6 1 24 7 40 11 25 13 26 17 9 2 -10 -1 -21 -7 -23z
m-263 -21 c3 -8 -1 -12 -9 -9 -7 2 -15 10 -17 17 -3 8 1 12 9 9 7 -2 15 -10
17 -17z m203 -84 c-8 -8 -11 -7 -11 4 0 20 13 34 18 19 3 -7 -1 -17 -7 -23z"/>
<path d="M3500 2606 c-28 -71 -23 -106 7 -45 27 55 38 99 25 99 -5 0 -20 -24
-32 -54z"/>
<path d="M840 2500 c0 -5 7 -10 15 -10 8 0 15 5 15 10 0 6 -7 10 -15 10 -8 0
-15 -4 -15 -10z"/>
<path d="M1392 2297 c-8 -9 -6 -16 8 -25 12 -7 21 -8 25 -2 3 6 1 10 -5 10 -6
0 -9 4 -5 9 9 15 -12 22 -23 8z"/>
<path d="M1472 2248 c3 -7 13 -15 22 -16 12 -3 17 1 14 10 -3 7 -13 15 -22 16
-12 3 -17 -1 -14 -10z"/>
<path d="M1607 2153 c-12 -11 -8 -23 8 -23 8 0 15 7 15 15 0 16 -12 20 -23 8z"/>
<path d="M1685 2150 c-3 -5 3 -10 14 -10 12 0 21 5 21 10 0 6 -6 10 -14 10 -8
0 -18 -4 -21 -10z"/>
<path d="M2616 1499 c-29 -23 -35 -47 -10 -45 25 2 28 -21 3 -27 -13 -3 -18
-10 -14 -17 4 -7 16 -10 26 -7 10 3 22 1 25 -4 9 -15 34 -10 28 6 -7 17 16 21
32 5 27 -27 67 27 42 57 -10 12 -89 53 -102 53 -2 0 -15 -9 -30 -21z"/>
</g>
</svg>
