<?xml version="1.0" standalone="no"?>
<!DOCTYPE svg PUBLIC "-//W3C//DTD SVG 20010904//EN"
 "http://www.w3.org/TR/2001/REC-SVG-20010904/DTD/svg10.dtd">
<svg version="1.0" xmlns="http://www.w3.org/2000/svg"
 width="700.000000pt" height="825.000000pt" viewBox="0 0 700.000000 825.000000"
 preserveAspectRatio="xMidYMid meet">

<g transform="translate(0.000000,825.000000) scale(0.100000,-0.100000)"
fill="#000000" stroke="none">
<path d="M6010 7984 c-48 -5 -417 -31 -635 -44 -99 -7 -232 -16 -295 -21 -63
-6 -189 -14 -280 -19 -91 -5 -248 -16 -350 -24 -216 -18 -402 -32 -625 -46
-88 -6 -248 -17 -355 -25 -107 -8 -242 -17 -300 -20 -58 -3 -190 -12 -295 -21
-287 -22 -581 -43 -762 -54 -263 -16 -360 -28 -475 -62 -29 -8 -41 -8 -53 2
-8 7 -61 18 -117 26 -98 12 -153 22 -348 58 -47 9 -104 16 -127 16 -23 0 -45
5 -48 10 -8 13 -122 13 -127 1 -2 -5 -50 -12 -107 -14 -57 -3 -107 -9 -110
-14 -3 -4 -22 -16 -43 -27 -96 -48 -253 -223 -330 -366 -37 -68 -87 -208 -108
-299 -9 -40 -12 -229 -11 -748 1 -381 4 -699 7 -706 2 -7 8 -437 13 -957 5
-577 12 -955 19 -970 5 -15 12 -334 17 -808 l7 -782 24 -43 c13 -23 27 -49 31
-57 4 -8 34 -51 68 -95 62 -82 92 -125 110 -154 6 -10 28 -39 51 -67 22 -27
55 -69 72 -94 32 -46 103 -140 147 -195 13 -16 43 -55 67 -85 23 -30 45 -57
48 -60 3 -3 14 -18 24 -34 20 -32 60 -79 94 -112 12 -12 22 -24 22 -27 0 -22
144 -265 191 -322 83 -102 227 -225 264 -225 9 0 18 -7 21 -15 4 -8 16 -15 29
-15 12 0 28 -7 35 -15 7 -8 26 -15 42 -15 16 0 44 -7 64 -15 55 -23 297 -13
389 15 39 12 87 24 107 27 21 3 38 9 38 13 0 5 15 11 32 15 18 4 65 18 105 31
39 13 82 24 95 24 13 0 32 7 42 15 11 8 28 15 38 15 9 0 32 6 50 14 18 8 53
20 78 26 25 7 56 16 70 20 14 5 59 18 100 30 41 12 89 28 107 36 17 8 40 14
51 14 12 0 23 4 26 9 3 5 20 11 38 14 45 7 162 43 223 68 47 20 112 39 131 39
11 0 29 7 40 15 10 8 31 15 46 15 15 0 42 6 60 14 57 24 161 58 201 66 21 4
44 13 50 19 6 6 20 11 30 11 19 0 96 23 152 45 17 7 71 25 120 40 85 26 202
63 415 134 52 17 105 31 116 31 12 0 27 7 34 15 7 8 20 15 29 15 9 0 74 19
146 41 310 99 504 162 565 184 36 13 189 65 340 115 151 50 283 95 292 100 10
6 24 10 33 10 8 0 29 7 47 14 18 8 71 27 118 41 47 14 104 39 128 55 23 17 45
30 48 30 18 0 264 246 264 263 0 3 18 32 40 65 22 33 40 64 40 69 0 5 5 14 11
20 9 9 59 141 75 198 3 11 9 29 14 40 23 61 33 168 41 445 4 168 12 355 18
415 15 162 36 982 66 2550 19 1013 19 1301 -1 1385 -8 36 -19 81 -23 100 -31
131 -149 319 -257 408 -97 81 -208 134 -324 154 -63 10 -209 17 -260 12z
m-405 -74 c58 -24 -106 -51 -930 -155 -110 -13 -292 -32 -405 -40 -113 -8
-266 -19 -340 -25 -74 -6 -202 -15 -285 -21 -82 -5 -238 -16 -345 -25 -107 -8
-287 -21 -400 -29 -113 -8 -266 -19 -340 -24 -74 -6 -243 -17 -375 -26 -132
-8 -276 -20 -320 -26 -152 -22 -347 -106 -465 -201 -19 -15 -40 -28 -46 -28
-11 0 -24 30 -24 57 0 22 142 127 238 176 168 87 247 106 547 127 238 17 554
40 690 50 72 5 195 15 275 20 80 6 204 15 275 20 72 5 148 12 170 15 22 3 121
9 220 15 99 5 272 17 385 25 113 8 277 19 365 25 88 5 210 14 270 19 61 6 209
17 330 26 121 9 263 20 315 24 129 11 171 11 195 1z m847 -117 c83 -65 183
-224 213 -338 13 -50 13 -61 1 -73 -24 -25 -279 -81 -439 -97 -84 -8 -192 -20
-242 -25 -49 -5 -178 -19 -285 -30 -107 -11 -301 -31 -430 -45 -129 -13 -347
-36 -485 -50 -137 -14 -353 -37 -480 -50 -126 -14 -453 -47 -725 -75 -272 -28
-535 -54 -585 -59 -49 -6 -155 -13 -235 -16 -135 -7 -149 -6 -205 16 -33 12
-98 33 -145 45 -47 13 -110 30 -140 39 -30 8 -67 15 -81 15 -29 0 -62 33 -75
73 -4 12 -31 60 -61 106 -47 72 -53 85 -40 98 18 18 104 40 192 48 39 3 219
21 400 40 182 20 465 48 630 65 165 16 431 43 590 59 160 17 387 39 505 51
187 18 324 32 780 80 52 5 172 17 265 26 193 17 581 57 790 79 77 8 160 22
185 29 61 20 62 20 102 -11z m-1289 -1024 c53 -24 57 -51 57 -411 0 -224 -4
-343 -12 -370 -20 -66 -47 -78 -273 -113 -251 -40 -308 -67 -345 -165 -19 -51
-20 -73 -18 -295 l3 -240 32 -3 c17 -2 114 10 215 27 313 52 326 52 362 -10
17 -28 18 -65 20 -412 l1 -382 -23 -32 c-26 -36 -58 -53 -147 -78 -33 -9 -83
-23 -111 -31 -28 -8 -66 -14 -85 -14 -19 0 -47 -7 -63 -15 -16 -9 -41 -16 -55
-18 -34 -2 -96 -64 -111 -109 -6 -21 -16 -38 -21 -38 -5 0 -9 -279 -9 -700 0
-460 3 -700 10 -700 6 0 10 -28 10 -65 0 -37 -4 -65 -10 -65 -6 0 -10 -29 -10
-67 -1 -116 -33 -175 -103 -194 -30 -8 -37 -13 -26 -20 10 -6 7 -9 -12 -9 -15
0 -32 -7 -39 -15 -7 -8 -27 -15 -45 -15 -19 0 -35 -4 -37 -8 -3 -9 -250 -72
-280 -72 -9 0 -18 -5 -20 -11 -6 -17 -235 -25 -282 -9 -20 6 -47 26 -61 44
l-25 33 0 839 c0 461 -2 860 -6 887 -7 45 -18 60 -27 35 -3 -10 -9 -8 -24 5
-22 19 -135 23 -233 6 -127 -20 -203 -21 -240 -2 -19 10 -40 29 -47 43 -10 19
-13 123 -13 415 0 352 2 393 18 425 33 66 75 82 327 125 55 9 119 21 142 26
23 5 52 9 65 9 50 0 49 -4 58 356 10 379 17 435 81 629 85 255 229 446 434
577 171 110 270 138 640 183 77 9 165 21 195 25 82 11 116 11 143 -1z"/>
</g>
</svg>
