<?xml version="1.0" standalone="no"?>
<!DOCTYPE svg PUBLIC "-//W3C//DTD SVG 20010904//EN"
 "http://www.w3.org/TR/2001/REC-SVG-20010904/DTD/svg10.dtd">
<svg version="1.0" xmlns="http://www.w3.org/2000/svg"
 width="700.000000pt" height="825.000000pt" viewBox="0 0 700.000000 825.000000"
 preserveAspectRatio="xMidYMid meet">

<g transform="translate(0.000000,825.000000) scale(0.100000,-0.100000)"
fill="#000000" stroke="none">
<path d="M885 7959 c-99 -8 -154 -23 -236 -64 -211 -106 -348 -299 -415 -585
-16 -69 -17 -171 -20 -1190 -3 -1144 9 -2432 25 -2645 5 -66 14 -210 20 -320
25 -454 36 -513 139 -725 45 -95 153 -250 190 -273 7 -5 30 -25 50 -45 48 -47
80 -72 91 -72 4 0 16 -9 26 -20 10 -11 29 -20 42 -20 12 0 23 -4 23 -10 0 -5
7 -10 15 -10 9 0 73 -23 143 -51 70 -28 163 -64 207 -80 102 -36 225 -81 295
-109 30 -12 69 -26 85 -30 52 -15 179 -60 195 -69 9 -5 31 -12 50 -16 19 -4
41 -11 50 -16 8 -4 60 -22 115 -40 55 -17 112 -37 127 -45 14 -8 37 -14 50
-14 12 -1 34 -7 48 -15 14 -8 35 -14 48 -15 12 0 22 -4 22 -9 0 -5 18 -12 40
-16 22 -4 42 -11 46 -16 3 -5 15 -9 27 -9 12 0 35 -7 51 -15 15 -8 35 -15 43
-15 8 0 29 -6 46 -14 18 -8 43 -16 57 -19 24 -5 64 -18 125 -42 17 -7 77 -27
135 -45 58 -18 113 -36 122 -41 10 -5 25 -9 34 -9 9 0 28 -6 42 -14 15 -7 95
-35 177 -61 83 -26 159 -51 170 -55 11 -5 31 -11 45 -14 29 -5 271 -89 286
-99 6 -3 30 -9 53 -13 23 -4 44 -11 47 -15 3 -5 14 -9 26 -9 11 0 32 -6 46
-14 33 -16 74 -31 167 -58 39 -11 84 -27 102 -34 17 -8 40 -14 52 -14 12 0 21
-4 21 -9 0 -5 18 -12 40 -16 22 -4 40 -10 40 -15 0 -5 18 -11 40 -15 22 -4 42
-11 46 -16 3 -5 14 -9 24 -9 11 0 34 -6 52 -14 18 -7 60 -21 93 -31 33 -9 72
-23 87 -31 14 -8 33 -14 42 -14 9 0 24 -4 34 -10 51 -29 215 -73 296 -79 102
-8 264 3 279 18 6 6 22 11 34 11 25 0 130 53 199 101 75 52 178 162 227 244
26 44 63 127 82 185 18 58 41 122 50 144 14 33 82 125 130 177 8 9 15 21 15
27 0 7 4 12 8 12 4 0 16 14 26 30 9 17 28 41 40 53 26 25 56 96 56 131 0 14 4
26 9 28 5 1 13 15 16 31 6 20 4 27 -8 27 -10 0 -17 15 -21 44 -7 45 0 96 14
96 4 0 10 30 12 66 2 36 9 69 16 73 7 4 13 86 18 259 4 139 11 252 16 252 4 0
8 67 8 149 0 125 2 150 16 155 12 5 14 16 8 64 -4 39 -1 78 9 118 8 32 13 70
11 84 -3 20 12 44 72 115 41 50 119 146 172 213 171 218 154 183 163 329 5 70
13 308 19 528 5 220 12 461 15 535 3 74 11 275 16 445 6 171 12 337 14 370 6
102 28 1015 26 1100 -4 204 -55 367 -169 540 -62 95 -193 225 -227 225 -15 0
-25 6 -25 14 0 19 -35 23 -145 14 -186 -14 -276 -18 -484 -23 -136 -2 -217 -8
-221 -15 -8 -12 -156 -7 -215 8 -22 6 -74 19 -115 30 -41 11 -113 22 -160 26
-47 3 -125 10 -175 16 -49 5 -171 17 -270 25 -99 9 -247 23 -330 30 -82 8
-231 22 -330 30 -99 8 -223 19 -275 25 -52 5 -129 12 -170 15 -41 3 -115 10
-165 15 -49 5 -171 16 -270 25 -99 8 -223 20 -276 26 -53 5 -146 14 -205 19
-178 15 -343 29 -444 40 -52 5 -178 16 -280 25 -102 8 -225 20 -275 25 -49 5
-133 12 -185 15 -52 4 -153 13 -225 21 -71 8 -141 13 -155 12 -14 0 -65 -4
-115 -9z m870 -98 c66 -6 165 -16 220 -22 55 -6 150 -15 210 -19 102 -8 174
-15 430 -40 55 -6 152 -15 215 -20 63 -5 192 -16 285 -25 94 -9 217 -20 275
-25 205 -17 356 -31 445 -41 50 -5 140 -14 200 -19 229 -18 373 -31 450 -41
44 -5 134 -14 200 -19 122 -10 301 -27 365 -34 188 -22 400 -120 538 -249 35
-33 39 -53 19 -81 -12 -16 -15 -15 -52 15 -113 90 -244 157 -381 194 -32 9
-176 27 -319 40 -143 13 -309 28 -370 34 -251 24 -771 73 -920 86 -149 13
-414 38 -530 49 -27 3 -131 13 -230 22 -180 16 -347 38 -720 93 -110 17 -249
37 -310 46 -111 16 -257 43 -285 52 -12 4 -11 7 5 14 22 10 80 7 260 -10z
m-987 -75 c22 -8 101 -22 174 -31 73 -9 165 -20 203 -25 70 -10 280 -34 430
-50 74 -8 508 -60 790 -95 155 -19 396 -48 1120 -135 347 -42 646 -79 735 -90
41 -5 131 -16 200 -25 503 -60 540 -68 540 -106 0 -10 -20 -46 -44 -81 -24
-35 -51 -79 -61 -98 -30 -60 -54 -80 -99 -80 -23 -1 -59 -8 -81 -16 -22 -9
-69 -21 -105 -29 -36 -7 -94 -23 -129 -35 -58 -21 -76 -22 -183 -16 -65 4
-171 13 -236 21 -64 8 -157 19 -207 25 -49 6 -124 15 -165 21 -41 5 -475 59
-965 119 -489 61 -962 119 -1050 130 -88 11 -196 24 -240 30 -44 6 -219 29
-390 50 -229 30 -342 49 -433 74 -68 19 -126 37 -129 40 -11 11 9 95 37 154
42 89 102 174 157 221 52 45 70 48 131 27z m1214 -1076 c40 -5 174 -23 298
-40 124 -17 252 -35 285 -40 33 -6 130 -19 215 -30 85 -11 184 -24 220 -30 36
-5 103 -14 150 -20 97 -12 339 -45 450 -61 274 -40 478 -146 686 -353 200
-201 314 -408 390 -711 21 -83 26 -130 30 -280 8 -363 11 -2175 3 -2175 -4 0
-10 28 -12 63 -2 50 -4 43 -5 -31 -1 -66 1 -91 9 -86 8 4 8 1 1 -12 -5 -11
-13 -40 -16 -66 -4 -26 -11 -50 -17 -53 -5 -4 -9 -21 -9 -38 0 -18 -7 -45 -15
-61 -8 -15 -15 -33 -15 -40 0 -6 -11 -27 -24 -46 -12 -19 -35 -57 -49 -84 -22
-41 -122 -163 -162 -197 -39 -33 -113 -82 -157 -105 -29 -14 -59 -31 -67 -37
-7 -6 -25 -13 -39 -15 -15 -2 -31 -7 -37 -12 -5 -4 -32 -13 -60 -19 -27 -5
-70 -15 -95 -20 -64 -14 -314 -3 -368 16 -50 19 -57 15 -41 -21 7 -14 9 -29 5
-33 -8 -8 -190 35 -226 54 -14 7 -38 13 -55 13 -16 1 -41 7 -55 15 -14 8 -35
14 -48 15 -13 0 -33 6 -45 12 -12 7 -44 18 -72 24 -86 19 -289 75 -305 83 -9
5 -36 12 -60 16 -24 4 -51 11 -60 15 -21 11 -124 40 -141 40 -8 0 -26 6 -41
14 -14 8 -46 17 -70 21 -24 4 -56 13 -73 20 -42 17 -108 35 -134 35 -11 0 -21
4 -21 9 0 8 -101 38 -165 48 -16 3 -34 9 -40 13 -5 4 -26 11 -45 15 -19 4 -41
12 -47 17 -7 6 -13 7 -13 4 0 -4 -13 2 -29 13 -16 12 -36 21 -44 21 -15 0 -77
29 -87 41 -3 3 -35 25 -72 49 -48 31 -68 49 -68 64 0 11 -17 37 -37 57 -52 50
-131 137 -170 187 -90 113 -204 306 -217 369 -4 18 -12 35 -17 38 -5 4 -9 27
-9 53 0 30 -3 42 -9 34 -11 -18 -21 7 -21 54 0 19 -4 34 -8 34 -37 0 -52 503
-28 960 9 162 21 453 26 645 17 537 27 757 38 790 5 17 20 66 32 110 13 44 26
87 31 95 4 8 20 42 35 75 68 145 224 311 360 381 94 49 164 71 259 83 99 12
115 12 197 1z m3983 -30 c7 -23 -2 -43 -16 -35 -12 8 -12 55 0 55 5 0 12 -9
16 -20z m312 -3562 c-3 -7 -5 -2 -5 12 0 14 2 19 5 13 2 -7 2 -19 0 -25z"/>
<path d="M1818 6305 c-88 -22 -157 -63 -231 -139 -110 -112 -167 -252 -181
-441 -3 -44 -8 -476 -11 -960 -4 -777 -3 -877 10 -855 14 24 14 23 15 -32 0
-32 5 -58 10 -58 6 0 10 -7 10 -16 0 -61 157 -396 193 -412 4 -2 7 -8 7 -13 0
-14 97 -106 161 -152 58 -43 145 -85 199 -97 50 -12 134 -44 138 -52 2 -5 21
-8 43 -8 21 0 39 -4 39 -10 0 -5 3 -9 8 -8 12 2 85 -13 107 -22 39 -17 162
-50 188 -50 14 0 28 -4 31 -9 3 -5 27 -12 53 -16 56 -8 122 -24 143 -35 9 -4
36 -11 60 -15 24 -4 51 -11 60 -16 15 -8 89 -28 125 -34 12 -1 50 -11 85 -20
36 -10 83 -21 105 -25 60 -12 150 -38 193 -56 108 -45 320 -67 416 -43 22 6
52 13 66 16 14 3 30 10 35 17 6 6 21 16 35 22 22 10 100 73 122 99 5 6 22 25
38 44 17 19 30 40 30 47 0 7 9 29 21 48 43 74 51 116 79 450 5 60 10 202 11
315 1 113 7 316 14 451 16 296 31 826 28 1005 -1 106 -6 146 -27 220 -49 170
-153 340 -270 443 -163 142 -236 169 -601 222 -77 11 -167 25 -200 30 -219 34
-278 43 -435 66 -96 14 -202 30 -235 35 -33 4 -91 13 -130 18 -38 6 -148 22
-244 36 -195 28 -232 29 -313 10z m84 -261 c179 -60 256 -323 136 -459 -50
-57 -88 -77 -147 -78 -112 -4 -214 62 -268 171 -24 48 -28 70 -28 137 0 104
28 165 99 213 40 27 57 32 105 32 32 0 78 -7 103 -16z m979 -468 c337 -101
613 -365 769 -735 42 -100 51 -132 70 -236 5 -27 14 -68 19 -90 17 -65 14
-343 -5 -417 -18 -74 -44 -149 -56 -162 -4 -6 -8 -20 -8 -32 0 -12 -7 -27 -15
-34 -8 -7 -15 -21 -15 -32 0 -19 -56 -109 -72 -116 -5 -2 -8 -10 -8 -18 0 -8
-7 -14 -15 -14 -8 0 -15 -6 -15 -13 0 -18 -69 -87 -98 -98 -13 -5 -20 -13 -17
-19 3 -5 -1 -10 -9 -10 -9 0 -16 -7 -16 -15 0 -8 -9 -15 -20 -15 -11 0 -23 -7
-26 -15 -4 -9 -19 -15 -36 -15 -23 0 -29 -4 -24 -15 4 -10 -1 -15 -15 -15 -11
0 -27 -7 -35 -15 -9 -8 -26 -15 -40 -15 -13 0 -24 -4 -24 -9 0 -5 -33 -12 -72
-17 -58 -6 -67 -9 -43 -14 30 -6 30 -6 -10 -13 -22 -4 -103 -5 -180 -3 -107 3
-155 9 -202 25 -80 27 -113 42 -113 53 0 4 -9 8 -20 8 -22 0 -93 31 -98 43 -2
4 -10 7 -17 7 -12 0 -57 36 -172 134 -13 11 -23 23 -23 27 0 4 -29 37 -65 73
-36 36 -65 70 -65 76 0 5 -6 10 -12 10 -7 0 -23 22 -36 48 -12 26 -36 70 -53
97 -16 28 -32 57 -35 65 -22 58 -45 116 -73 180 -12 29 -25 78 -51 210 -40
192 -17 482 50 635 5 11 18 41 30 67 81 186 239 348 411 420 125 52 161 58
324 54 124 -3 165 -8 236 -30z"/>
<path d="M2588 5195 c-122 -25 -206 -85 -283 -205 -66 -101 -86 -174 -92 -322
-6 -126 0 -173 32 -258 7 -19 19 -55 26 -80 16 -55 47 -115 77 -149 12 -14 22
-33 22 -41 0 -17 34 -50 50 -50 6 0 10 -7 10 -15 0 -10 7 -15 18 -13 12 2 16
-3 14 -15 -3 -15 1 -17 17 -12 13 4 27 -1 40 -14 12 -12 24 -21 27 -21 11 0
35 -30 30 -38 -2 -4 5 -9 17 -9 21 -2 48 -13 92 -36 11 -6 42 -14 70 -19 27
-4 51 -12 53 -18 2 -5 18 -10 35 -9 27 0 29 2 12 9 -14 6 -2 9 42 9 34 1 65 6
68 11 4 6 10 8 15 5 5 -3 11 -1 15 5 3 5 17 10 30 10 13 0 31 7 40 16 9 9 28
16 42 17 14 0 20 3 14 6 -6 4 12 27 44 56 30 27 55 54 55 61 0 7 3 14 8 16 10
4 39 67 47 103 4 16 12 33 18 37 8 5 11 64 11 195 -1 170 -3 193 -23 243 -12
30 -27 69 -33 85 -6 17 -15 34 -19 40 -5 5 -9 15 -9 23 0 8 -13 31 -30 52 -16
21 -30 41 -30 44 0 10 -32 46 -101 115 -81 81 -195 144 -298 166 -84 17 -84
17 -173 0z"/>
<path d="M2485 4010 c3 -5 10 -10 16 -10 5 0 9 5 9 10 0 6 -7 10 -16 10 -8 0
-12 -4 -9 -10z"/>
<path d="M2655 3900 c-3 -5 1 -10 9 -10 9 0 16 5 16 10 0 6 -4 10 -9 10 -6 0
-13 -4 -16 -10z"/>
<path d="M2753 3873 c9 -2 25 -2 35 0 9 3 1 5 -18 5 -19 0 -27 -2 -17 -5z"/>
<path d="M1421 3684 c0 -11 3 -14 6 -6 3 7 2 16 -1 19 -3 4 -6 -2 -5 -13z"/>
<path d="M4606 2685 c-3 -8 -1 -15 4 -15 6 0 10 7 10 15 0 8 -2 15 -4 15 -2 0
-6 -7 -10 -15z"/>
</g>
</svg>
