<?xml version="1.0" standalone="no"?>
<!DOCTYPE svg PUBLIC "-//W3C//DTD SVG 20010904//EN"
 "http://www.w3.org/TR/2001/REC-SVG-20010904/DTD/svg10.dtd">
<svg version="1.0" xmlns="http://www.w3.org/2000/svg"
 width="700.000000pt" height="825.000000pt" viewBox="0 0 700.000000 825.000000"
 preserveAspectRatio="xMidYMid meet">

<g transform="translate(0.000000,825.000000) scale(0.100000,-0.100000)"
fill="#000000" stroke="none">
<path d="M5820 8018 c-80 -4 -242 -15 -360 -24 -118 -9 -276 -20 -350 -25 -74
-5 -205 -15 -290 -23 -129 -11 -142 -13 -80 -15 77 -1 233 9 515 35 234 21
507 15 467 -10 -11 -7 -236 -42 -422 -66 -36 -5 -126 -17 -200 -28 -74 -11
-175 -25 -225 -31 -49 -6 -155 -20 -235 -31 -80 -10 -206 -24 -280 -30 -74 -6
-214 -17 -310 -26 -96 -8 -240 -19 -320 -24 -80 -6 -217 -17 -305 -25 -88 -8
-236 -19 -328 -25 -93 -5 -171 -12 -175 -14 -4 -2 -61 -7 -126 -11 -65 -4
-133 -11 -150 -16 -17 -5 -92 -9 -166 -10 -83 -1 -125 -4 -110 -9 34 -11 18
-12 -150 -11 -80 0 -172 -3 -205 -8 -54 -8 -48 -9 64 -10 68 0 122 -3 119 -6
-2 -3 -73 -10 -158 -15 -84 -6 -160 -14 -169 -19 -9 -5 -45 -11 -81 -15 -59
-5 -62 -4 -30 6 l35 12 -39 4 c-21 2 -43 -1 -49 -7 -6 -6 -20 -11 -32 -11 -11
0 -40 -11 -64 -25 -23 -14 -47 -25 -52 -25 -6 0 -22 -8 -37 -18 -166 -113
-172 -116 -186 -101 -8 8 -17 28 -21 46 -7 35 -5 37 78 111 20 17 40 32 45 32
5 0 17 9 27 20 24 27 17 25 -48 -9 -70 -37 -141 -47 -181 -26 -39 21 -62 19
-86 -7 -15 -16 -20 -31 -16 -50 4 -18 0 -30 -9 -36 -13 -7 -13 -14 -4 -42 7
-19 16 -39 20 -44 19 -21 7 -48 -41 -98 -34 -35 -53 -49 -58 -41 -5 8 -19 9
-45 4 -20 -5 -52 -6 -69 -2 -36 8 -283 5 -366 -5 -29 -3 -50 -10 -47 -15 4 -5
-21 -9 -58 -9 -45 0 -68 -5 -77 -15 -7 -8 -23 -15 -36 -15 -13 0 -24 -4 -24
-10 0 -5 -6 -10 -13 -10 -23 0 -83 -36 -114 -67 -20 -20 -34 -28 -40 -22 -13
13 -26 -106 -26 -221 0 -47 5 -747 10 -1557 l10 -1471 27 -44 c40 -66 154
-231 173 -250 14 -15 14 -22 4 -42 -8 -13 -11 -29 -7 -34 3 -6 0 -12 -6 -14
-13 -5 -14 -16 -17 -123 -1 -40 -5 -55 -15 -55 -10 0 -13 -11 -12 -37 1 -21
-2 -41 -6 -44 -5 -3 -12 -38 -15 -77 -3 -40 -10 -72 -14 -72 -5 0 -9 -11 -9
-25 0 -15 -6 -25 -14 -25 -10 0 -16 -20 -21 -70 -4 -38 -11 -70 -15 -70 -5 0
-7 -26 -4 -57 4 -68 4 -55 -1 -207 -3 -81 -9 -123 -17 -129 -10 -7 -10 -10 0
-14 15 -6 16 -34 0 -68 -9 -21 -9 -31 0 -46 7 -10 12 -40 12 -66 1 -42 2 -46
14 -30 18 23 28 21 26 -5 -4 -47 0 -77 14 -90 7 -8 21 -28 30 -46 9 -18 20
-32 24 -32 4 0 16 -15 27 -32 10 -18 23 -37 27 -43 4 -5 19 -24 33 -41 14 -18
25 -36 25 -41 0 -5 15 -27 33 -49 18 -21 45 -58 61 -82 16 -23 33 -42 37 -42
5 0 9 -5 9 -10 0 -17 157 -248 273 -400 19 -25 51 -70 72 -100 21 -30 41 -57
46 -60 4 -3 27 -44 52 -92 61 -117 97 -168 186 -260 123 -130 267 -221 367
-233 32 -3 65 -10 74 -14 19 -10 184 -4 270 9 72 12 106 21 230 60 47 15 119
38 160 50 41 12 86 26 100 30 14 5 86 27 160 50 74 23 144 46 155 50 11 4 61
20 110 34 50 15 100 31 113 37 13 5 35 9 50 9 16 0 32 4 37 9 6 5 37 16 70 26
33 10 85 25 115 35 393 126 478 153 495 160 11 5 47 16 80 25 33 9 69 20 80
24 11 5 61 21 110 36 98 30 171 54 520 168 127 41 304 98 395 127 151 48 262
85 565 190 61 21 148 50 195 65 47 14 93 30 102 35 10 6 26 10 36 10 10 0 21
3 25 6 3 3 50 22 104 41 166 58 227 80 263 96 47 20 144 93 198 148 56 56 171
218 207 289 15 30 31 62 35 71 18 35 62 175 75 238 14 69 20 128 30 296 4 55
15 179 26 275 26 233 36 405 54 900 21 596 54 2243 56 2815 0 314 -1 359 -19
440 -52 232 -163 413 -328 531 -34 24 -67 44 -73 44 -6 0 -19 4 -29 9 -48 24
-74 32 -152 46 -92 16 -194 17 -420 3z m620 -185 c80 -72 152 -196 184 -318
15 -59 13 -80 -9 -88 -66 -26 -294 -70 -445 -86 -206 -23 -479 -52 -1045 -111
-209 -22 -463 -49 -565 -60 -222 -24 -587 -63 -840 -90 -102 -11 -295 -31
-430 -45 -453 -47 -534 -55 -780 -70 -135 -8 -271 -18 -303 -21 -39 -5 -57 -3
-57 4 0 13 21 19 110 27 83 8 110 15 110 27 0 7 -44 9 -122 7 l-123 -4 -3 32
c-2 17 -10 37 -18 43 -8 7 -14 20 -14 30 0 10 -7 23 -15 30 -8 7 -15 18 -15
25 0 12 -32 76 -77 153 -24 40 -24 44 -9 68 10 14 29 30 44 36 15 6 36 14 47
18 11 5 74 14 140 20 66 7 158 16 205 21 47 4 147 13 223 19 76 5 148 12 160
15 23 5 167 19 362 35 61 5 155 14 210 19 55 6 156 15 225 21 69 5 163 14 210
19 47 6 135 15 195 21 61 6 198 19 305 31 107 11 240 24 295 29 55 5 168 16
250 24 83 9 200 20 260 26 61 5 173 16 250 24 77 9 190 20 250 26 250 23 622
60 655 66 19 4 42 10 50 15 37 21 77 9 130 -38z m-1450 -969 c6 -14 10 -40 10
-57 0 -29 23 -141 49 -242 6 -22 22 -67 36 -100 14 -33 31 -72 38 -87 6 -16
15 -28 19 -28 4 0 8 -5 8 -11 0 -6 11 -25 25 -43 14 -18 25 -37 25 -43 0 -12
160 -173 172 -173 5 0 17 -8 28 -17 10 -10 36 -26 57 -37 21 -10 45 -22 53
-26 44 -21 137 -39 238 -46 94 -5 114 -10 122 -25 16 -28 13 -628 -3 -659 -18
-36 -116 -53 -277 -46 -133 5 -232 23 -345 62 -159 56 -153 55 -180 30 -14
-13 -22 -26 -18 -29 3 -4 1 -7 -5 -7 -7 0 -12 -14 -12 -31 0 -16 -4 -28 -9
-25 -6 4 -11 -292 -14 -741 -4 -601 -8 -762 -20 -818 -20 -98 -52 -220 -67
-260 -8 -22 -38 -98 -50 -130 -4 -11 -20 -46 -34 -78 -14 -32 -26 -62 -26 -67
0 -6 -4 -10 -10 -10 -5 0 -10 -5 -10 -12 0 -15 -80 -152 -92 -156 -4 -2 -8 -8
-8 -13 0 -6 -19 -35 -42 -66 -24 -31 -52 -68 -63 -82 -10 -14 -34 -40 -52 -58
-18 -17 -33 -34 -33 -37 0 -13 -160 -162 -206 -192 -16 -10 -38 -27 -48 -36
-11 -10 -23 -18 -27 -18 -4 0 -14 -6 -21 -13 -21 -19 -56 -37 -73 -37 -8 0
-15 -4 -15 -10 0 -5 -11 -12 -25 -16 -14 -3 -25 -10 -25 -15 0 -5 -6 -9 -14
-9 -8 0 -38 -12 -68 -26 -61 -30 -85 -40 -113 -47 -11 -3 -45 -13 -75 -22 -30
-9 -97 -23 -149 -30 -140 -19 -357 7 -502 60 -51 19 -152 67 -159 76 -3 4 -30
19 -60 35 -30 16 -59 34 -65 40 -5 5 -26 22 -46 37 -20 14 -49 40 -65 57 -16
16 -35 30 -41 30 -8 0 -13 13 -13 30 0 23 -3 28 -17 23 -11 -4 -14 -3 -9 5 4
7 2 20 -3 29 -10 17 -10 17 -11 0 0 -23 -20 -18 -34 9 -6 10 -13 21 -16 24
-37 37 -150 249 -150 281 0 10 -4 21 -10 24 -5 3 -10 16 -10 29 0 12 -5 27
-12 34 -12 12 -17 41 -44 247 -22 172 -11 342 34 530 21 86 64 216 82 247 6
10 10 23 10 30 0 7 6 24 14 38 7 14 32 61 55 105 24 44 49 87 57 96 8 8 14 21
14 28 0 6 7 14 15 17 8 4 15 12 15 20 0 8 4 14 8 14 4 0 15 12 24 28 15 24 83
108 140 172 67 75 197 184 298 251 104 69 253 149 278 149 6 0 23 6 39 14 81
42 324 98 331 78 2 -8 33 -12 85 -12 95 0 128 -13 141 -55 8 -29 30 -81 47
-117 5 -10 14 -39 19 -65 6 -26 15 -50 21 -53 16 -10 22 -185 8 -260 -7 -39
-15 -70 -19 -70 -4 0 -18 -27 -31 -60 -13 -33 -27 -60 -31 -60 -5 0 -8 -5 -8
-12 0 -22 -33 -48 -62 -48 -16 0 -28 -5 -28 -12 0 -7 -35 -30 -78 -51 -42 -20
-90 -46 -107 -57 -16 -11 -39 -24 -50 -29 -32 -15 -195 -172 -224 -216 -49
-76 -84 -143 -120 -230 -21 -51 -23 -253 -2 -305 28 -73 73 -160 82 -160 5 0
9 -5 9 -10 0 -13 82 -90 96 -90 5 0 19 -8 30 -18 28 -27 79 -42 143 -43 56 -1
56 -1 16 -9 -22 -5 -50 -6 -62 -3 -13 3 -23 0 -23 -6 0 -7 25 -11 70 -11 40 0
70 4 70 10 0 6 9 10 19 10 11 0 27 3 36 6 13 5 14 8 3 15 -9 6 -4 9 15 9 26 0
108 44 115 61 2 5 8 9 14 9 24 0 178 169 178 196 0 2 11 22 25 44 14 22 25 46
25 53 0 7 9 32 20 54 46 96 48 137 54 1038 11 1558 17 2200 22 2222 8 42 44
52 319 88 141 18 174 21 278 23 75 2 78 1 87 -24z m-3990 -9 c0 -33 -26 -95
-39 -95 -14 0 -14 18 0 61 6 19 12 40 15 47 6 22 24 13 24 -13z m3260 -2330
c-4 -66 -8 -104 -10 -85 -1 19 -4 46 -6 60 -7 61 -7 220 1 270 l9 55 7 -90 c3
-49 3 -144 -1 -210z m-3875 -1075 c3 -5 1 -10 -4 -10 -6 0 -11 5 -11 10 0 6 2
10 4 10 3 0 8 -4 11 -10z"/>
<path d="M2632 2670 c0 -14 2 -19 5 -12 2 6 2 18 0 25 -3 6 -5 1 -5 -13z"/>
<path d="M4468 7921 c-64 -3 -120 -9 -124 -14 -9 -9 231 3 266 14 l25 7 -25
-1 c-14 0 -78 -3 -142 -6z"/>
<path d="M1497 7614 c-4 -4 -4 -10 -1 -15 6 -10 34 0 34 12 0 10 -24 12 -33 3z"/>
<path d="M1238 7563 c7 -3 16 -2 19 1 4 3 -2 6 -13 5 -11 0 -14 -3 -6 -6z"/>
<path d="M1808 7563 c18 -2 45 -2 60 0 15 2 0 4 -33 4 -33 0 -45 -2 -27 -4z"/>
<path d="M190 7255 c0 -8 5 -15 10 -15 6 0 10 7 10 15 0 8 -4 15 -10 15 -5 0
-10 -7 -10 -15z"/>
<path d="M172 2770 c0 -14 2 -19 5 -12 2 6 2 18 0 25 -3 6 -5 1 -5 -13z"/>
</g>
</svg>
