<?xml version="1.0" standalone="no"?>
<!DOCTYPE svg PUBLIC "-//W3C//DTD SVG 20010904//EN"
 "http://www.w3.org/TR/2001/REC-SVG-20010904/DTD/svg10.dtd">
<svg version="1.0" xmlns="http://www.w3.org/2000/svg"
 width="700.000000pt" height="825.000000pt" viewBox="0 0 700.000000 825.000000"
 preserveAspectRatio="xMidYMid meet">

<g transform="translate(0.000000,825.000000) scale(0.100000,-0.100000)"
fill="#000000" stroke="none">
<path d="M5915 8029 c-144 -13 -502 -38 -700 -49 -93 -5 -204 -14 -245 -20
-41 -6 -156 -15 -255 -20 -99 -6 -277 -16 -395 -24 -118 -8 -289 -20 -380 -25
-91 -6 -208 -15 -260 -21 -52 -6 -167 -15 -255 -20 -215 -12 -436 -28 -570
-40 -60 -6 -182 -15 -270 -20 -88 -5 -207 -14 -265 -19 -58 -6 -143 -10 -190
-11 -123 0 -315 -26 -401 -54 -104 -33 -167 -45 -299 -56 -63 -5 -132 -12
-153 -16 -21 -3 -43 -2 -50 4 -22 18 -218 41 -520 62 -144 9 -160 9 -185 -7
-33 -22 -152 -139 -152 -151 0 -4 -14 -23 -32 -42 -43 -48 -124 -219 -148
-315 -11 -44 -24 -117 -29 -162 -8 -75 -3 -922 13 -2238 4 -264 7 -586 7 -715
1 -152 6 -256 14 -295 10 -45 15 -250 19 -810 4 -412 10 -771 15 -798 4 -26
14 -53 22 -60 8 -6 50 -64 93 -127 43 -63 113 -162 156 -220 44 -58 94 -125
112 -150 18 -25 41 -54 51 -65 10 -11 28 -36 39 -55 12 -19 38 -53 57 -76 67
-76 211 -262 211 -272 0 -6 4 -12 8 -14 4 -1 28 -41 51 -88 59 -114 106 -179
204 -278 104 -105 112 -112 123 -112 5 0 17 -9 27 -20 9 -11 24 -20 32 -20 30
0 5 -17 -33 -24 -21 -3 -51 -17 -66 -31 -15 -14 -32 -25 -37 -25 -6 0 -9 -12
-7 -27 2 -20 9 -29 26 -31 12 -2 22 -8 22 -13 0 -5 7 -9 15 -9 8 0 15 -9 15
-20 0 -16 7 -20 30 -20 17 0 30 -3 30 -7 0 -5 11 -13 23 -19 21 -9 23 -8 19
12 -4 21 -1 22 37 17 33 -5 41 -2 41 10 0 18 67 33 100 22 13 -4 22 -1 26 9 4
11 20 16 53 17 25 1 60 4 76 8 l30 7 -40 7 c-22 4 -58 7 -80 8 -87 3 19 17
137 18 72 1 118 5 120 12 2 5 24 13 48 16 25 3 49 12 53 19 4 8 23 14 42 14
18 0 40 7 49 15 9 9 34 15 65 15 39 0 51 4 51 15 0 11 12 15 46 15 35 0 45 3
41 14 -7 18 14 23 76 20 40 -2 46 0 36 12 -10 12 -3 14 40 14 39 0 51 4 51 15
0 10 10 15 33 15 20 0 44 9 57 20 13 11 37 20 55 20 18 0 38 7 45 15 8 9 30
15 60 15 32 0 50 5 53 14 4 10 20 14 51 13 44 -2 61 6 34 16 -19 6 62 17 95
13 15 -2 30 1 33 5 3 5 -2 9 -11 9 -9 0 -13 5 -10 10 3 6 23 10 45 10 24 0 40
5 44 15 4 11 20 15 56 15 35 0 49 4 48 13 -2 8 13 13 42 15 26 2 48 10 53 18
4 8 23 14 41 14 21 0 36 6 40 15 3 10 19 15 47 15 25 0 46 6 53 15 6 8 29 16
51 17 22 2 45 9 50 16 6 7 30 14 53 15 24 1 42 7 42 14 0 6 22 14 50 18 27 4
52 11 56 16 3 5 13 9 22 9 10 0 34 9 55 20 20 11 47 20 59 20 13 0 32 7 42 15
11 8 34 15 50 15 17 0 40 7 50 15 11 8 29 15 41 15 12 0 30 7 41 15 10 8 35
15 55 15 19 0 44 7 55 15 10 8 26 15 34 15 8 0 27 6 42 14 15 8 41 17 58 21
17 4 43 13 58 21 15 8 37 14 50 14 13 0 30 7 38 15 9 8 30 15 48 15 18 0 41 7
52 15 10 8 30 15 44 15 14 0 36 7 50 15 14 8 36 14 50 15 15 0 30 4 36 10 5 5
48 21 94 35 47 14 94 29 105 34 11 5 56 21 100 35 92 29 117 38 235 81 47 17
112 40 145 50 33 9 69 22 80 28 11 6 33 14 50 18 16 4 75 24 130 44 55 20 156
55 225 78 69 23 127 45 128 49 2 4 9 8 15 8 19 0 88 39 121 69 137 120 241
253 297 380 17 36 34 74 39 83 6 10 10 25 10 33 0 9 7 29 15 45 24 47 47 186
55 340 4 80 12 172 18 205 37 198 65 621 82 1200 5 187 18 662 30 1055 26 903
40 1829 29 1940 -13 143 -51 269 -115 389 -35 65 -136 185 -196 233 -51 42
-172 101 -248 122 -71 20 -247 27 -375 15z m-307 -67 c19 -13 -81 -40 -209
-58 -63 -8 -161 -21 -219 -29 -58 -8 -148 -20 -200 -25 -52 -6 -102 -13 -110
-15 -73 -20 -434 -56 -785 -80 -121 -8 -308 -21 -415 -30 -107 -8 -289 -21
-405 -30 -115 -8 -295 -21 -400 -30 -451 -35 -728 -54 -845 -59 -69 -3 -152
-12 -185 -21 -146 -37 -298 -109 -396 -186 -46 -36 -67 -37 -75 -2 -9 33 1 49
62 96 108 85 225 146 359 188 77 24 387 55 795 79 80 5 210 13 290 19 224 17
421 31 585 41 83 5 195 14 250 20 55 5 174 15 265 21 91 5 246 16 345 24 99 8
250 19 335 24 85 6 209 16 275 21 66 6 203 15 304 20 101 5 186 11 189 14 8 9
175 7 190 -2z m840 -137 c66 -60 128 -157 163 -257 32 -91 35 -121 17 -135
-20 -16 -254 -72 -343 -83 -44 -5 -132 -14 -195 -20 -63 -6 -218 -21 -345 -35
-653 -70 -802 -86 -940 -100 -82 -8 -469 -48 -860 -89 -1055 -111 -1337 -133
-1367 -109 -18 15 -120 43 -155 43 -15 0 -48 10 -73 22 -25 12 -74 26 -110 33
-64 11 -65 12 -97 66 -17 29 -38 64 -45 76 -60 99 -77 137 -67 149 15 18 94
41 164 48 33 3 168 17 300 30 132 14 317 32 410 41 94 9 294 30 445 46 318 34
519 55 675 69 61 5 176 16 258 25 290 30 444 46 577 60 164 17 566 57 1270
126 58 6 128 16 155 24 88 23 108 20 163 -30z m-599 -1197 c4 -13 11 -544 14
-1181 6 -1087 5 -1161 -11 -1190 -19 -35 -54 -89 -62 -97 -3 -3 -14 -23 -25
-45 -11 -22 -25 -44 -32 -48 -7 -4 -13 -14 -13 -22 0 -7 -6 -20 -12 -27 -7 -7
-19 -25 -27 -40 -8 -15 -22 -37 -33 -47 -10 -11 -18 -24 -18 -29 0 -4 -7 -17
-15 -27 -29 -37 -85 -127 -85 -136 0 -5 -4 -9 -10 -9 -5 0 -10 -6 -10 -14 0
-7 -21 -42 -48 -77 -26 -35 -54 -76 -61 -91 -8 -15 -22 -37 -33 -47 -10 -11
-18 -25 -18 -31 0 -5 -3 -10 -7 -10 -5 0 -21 -21 -38 -48 -16 -26 -34 -52 -40
-58 -5 -6 -26 -32 -45 -59 -19 -26 -59 -73 -87 -104 -29 -30 -53 -59 -53 -63
0 -11 -65 -68 -96 -84 -14 -8 -35 -14 -45 -14 -10 0 -33 -7 -51 -14 -18 -8
-60 -18 -92 -21 -40 -5 -55 -10 -45 -16 10 -6 8 -9 -11 -10 -61 -2 -112 -11
-137 -24 -16 -8 -36 -15 -46 -15 -25 0 -140 -54 -156 -73 -7 -9 -17 -15 -21
-12 -21 13 -40 -43 -26 -75 4 -11 -11 -34 -46 -72 -77 -81 -119 -133 -157
-195 -18 -30 -47 -69 -62 -86 -16 -17 -29 -35 -29 -39 0 -10 -78 -88 -88 -88
-4 0 -26 -17 -49 -37 -23 -21 -68 -49 -100 -62 -32 -13 -74 -31 -93 -40 -27
-12 -66 -16 -175 -15 -121 0 -146 3 -185 21 l-46 22 -12 168 c-7 92 -16 184
-21 203 l-7 35 -8 -30 -8 -30 -18 23 c-13 15 -29 22 -54 22 -20 0 -36 5 -36
11 0 8 -19 10 -62 5 -35 -4 -94 -10 -132 -14 -40 -5 -71 -13 -74 -20 -2 -7
-18 -12 -37 -12 -18 0 -52 -7 -75 -15 -23 -8 -66 -15 -94 -15 -28 -1 -69 -7
-91 -15 -49 -18 -122 -19 -155 -2 -20 10 -26 23 -32 62 -3 28 -2 698 3 1490
l9 1439 29 81 c16 44 50 145 76 225 25 80 71 218 102 307 l55 162 42 16 c22 8
102 22 176 31 74 8 187 22 250 29 63 8 162 19 220 25 58 6 128 15 155 20 28 5
79 12 115 15 36 3 90 10 120 15 30 5 127 17 215 25 88 9 207 22 265 30 108 15
191 25 410 50 69 8 181 22 250 30 285 37 350 45 460 55 63 5 165 17 225 25
233 32 253 32 264 3z"/>
<path d="M5320 6205 c-58 -8 -159 -21 -225 -30 -289 -39 -337 -45 -465 -60
-132 -16 -248 -32 -440 -60 -52 -8 -156 -21 -230 -30 -74 -9 -198 -25 -275
-35 -77 -10 -198 -26 -270 -35 -71 -10 -173 -25 -225 -34 l-95 -16 -5 -150
c-7 -221 8 -1863 19 -2055 6 -98 14 -166 20 -168 6 -2 11 -16 11 -30 0 -32 52
-72 92 -72 14 0 28 -7 32 -15 7 -20 114 -20 163 0 19 8 50 15 67 15 17 0 47 4
66 10 19 5 75 14 124 20 76 9 92 9 112 -5 13 -8 24 -25 24 -36 0 -12 7 -33 16
-48 13 -22 24 -27 57 -29 23 -1 52 4 65 10 16 8 28 9 39 2 12 -8 22 -5 40 12
12 12 23 25 23 30 0 5 13 24 30 42 16 18 42 49 57 70 16 20 35 42 43 49 23 18
130 53 164 53 17 0 42 6 57 13 14 8 51 17 82 21 32 3 65 11 75 16 17 10 94 24
215 40 37 5 74 16 83 24 8 9 29 16 45 16 18 0 29 5 29 14 0 19 30 29 47 15 11
-10 15 -8 20 9 3 12 10 19 15 16 5 -3 12 3 15 15 3 12 12 21 19 21 8 0 14 6
14 13 0 7 23 38 50 69 28 31 50 59 50 62 0 6 97 142 142 200 13 16 49 67 81
114 31 47 61 88 65 91 5 3 14 22 22 41 12 29 14 181 15 915 l0 880 -35 2 c-19
0 -82 -5 -140 -12z m-250 -685 c13 -8 16 -77 23 -462 5 -249 6 -481 2 -516 -8
-74 -27 -92 -109 -103 -28 -3 -83 -12 -123 -20 -50 -9 -83 -10 -110 -3 l-38 9
-3 500 c-1 275 0 510 3 523 7 28 35 39 155 62 109 20 178 24 200 10z m-810
-125 c10 -12 13 -132 14 -540 1 -465 -1 -526 -15 -540 -37 -38 -337 -73 -367
-43 -9 9 -12 140 -12 530 0 591 -7 547 92 567 192 40 270 47 288 26z"/>
<path d="M3220 3380 c0 -5 13 -10 29 -10 17 0 33 5 36 10 4 6 -8 10 -29 10
-20 0 -36 -4 -36 -10z"/>
<path d="M3980 3320 c0 -5 5 -10 11 -10 5 0 7 5 4 10 -3 6 -8 10 -11 10 -2 0
-4 -4 -4 -10z"/>
</g>
</svg>
