<?xml version="1.0" standalone="no"?>
<!DOCTYPE svg PUBLIC "-//W3C//DTD SVG 20010904//EN"
 "http://www.w3.org/TR/2001/REC-SVG-20010904/DTD/svg10.dtd">
<svg version="1.0" xmlns="http://www.w3.org/2000/svg"
 width="700.000000pt" height="825.000000pt" viewBox="0 0 700.000000 825.000000"
 preserveAspectRatio="xMidYMid meet">

<g transform="translate(0.000000,825.000000) scale(0.100000,-0.100000)"
fill="#000000" stroke="none">
<path d="M962 7800 c-76 -11 -155 -34 -202 -60 -19 -10 -44 -23 -56 -29 -34
-15 -143 -121 -186 -179 -58 -78 -105 -184 -134 -302 l-27 -105 7 -695 c3
-382 10 -821 16 -975 15 -440 29 -817 41 -1115 7 -151 13 -345 15 -430 3 -85
9 -196 14 -247 6 -50 10 -120 10 -154 0 -35 4 -88 10 -118 5 -31 14 -90 21
-131 10 -73 38 -214 58 -295 6 -22 15 -80 21 -130 22 -188 66 -344 118 -420
15 -22 30 -48 34 -58 28 -68 182 -231 249 -263 124 -61 197 -94 206 -94 6 0
24 -7 39 -15 16 -8 37 -15 46 -15 9 0 19 -4 22 -9 3 -4 20 -11 37 -15 17 -3
45 -12 62 -20 18 -8 82 -33 142 -54 61 -22 155 -56 210 -75 107 -39 171 -60
385 -127 74 -23 144 -45 155 -50 11 -4 74 -25 140 -45 196 -60 429 -136 447
-146 10 -5 28 -9 40 -9 13 0 32 -7 42 -15 11 -8 30 -15 43 -15 13 0 31 -4 41
-9 9 -5 51 -19 92 -31 41 -12 91 -27 110 -34 88 -33 107 -39 138 -43 18 -3 35
-9 38 -14 3 -5 15 -9 28 -9 12 0 26 -4 31 -9 6 -6 23 -12 40 -15 16 -3 31 -10
33 -16 2 -5 24 -10 48 -10 24 0 44 -4 44 -10 0 -5 11 -10 24 -10 14 0 28 -5
31 -10 3 -6 19 -10 34 -10 15 0 31 -4 36 -9 8 -7 86 -33 140 -47 6 -1 37 -12
69 -23 33 -12 69 -21 82 -21 13 0 26 -4 29 -10 3 -5 16 -10 29 -10 12 0 26 -4
31 -9 6 -6 26 -13 45 -16 19 -3 37 -10 38 -16 2 -5 19 -9 37 -9 19 0 37 -5 40
-10 3 -6 14 -10 23 -10 9 0 30 -7 46 -15 15 -8 35 -15 44 -15 9 0 61 -15 117
-34 55 -18 120 -39 145 -46 25 -6 60 -18 78 -26 18 -8 41 -14 52 -14 10 0 22
-4 25 -10 3 -5 17 -10 30 -10 13 0 34 -4 47 -9 87 -33 149 -43 263 -43 130 0
210 15 290 53 157 74 304 222 400 404 37 70 51 91 132 189 66 81 282 355 353
450 36 48 85 113 110 146 25 32 65 87 90 121 25 34 51 68 58 76 38 38 42 125
42 868 0 538 3 724 12 733 12 12 20 524 34 2219 6 668 4 865 -5 910 -20 92
-58 194 -98 270 -35 64 -58 97 -121 174 l-24 29 -164 -7 c-145 -5 -164 -4
-164 10 0 12 -16 17 -74 22 -41 4 -96 4 -123 1 -141 -19 -223 -18 -301 2 -42
11 -120 23 -172 27 -56 3 -136 18 -195 35 -55 15 -122 33 -150 39 -46 10 -405
40 -725 61 -74 5 -164 11 -200 14 -36 4 -168 13 -295 21 -126 8 -302 19 -390
25 -277 18 -463 32 -830 60 -71 6 -195 15 -275 20 -80 5 -237 16 -350 24 -270
21 -466 34 -680 46 -96 5 -209 12 -250 14 -41 2 -103 0 -138 -4z m973 -79 c77
-5 257 -19 400 -30 273 -21 417 -32 780 -56 376 -25 747 -52 985 -70 102 -8
248 -19 325 -25 556 -40 630 -47 705 -66 123 -31 323 -139 393 -212 22 -23 27
-35 21 -56 -3 -14 -12 -26 -19 -26 -7 0 -52 27 -100 59 -111 76 -239 127 -363
146 -54 8 -225 24 -382 35 -157 11 -438 31 -625 45 -320 23 -464 33 -985 70
-640 46 -1593 165 -1573 198 6 10 191 5 438 -12z m-1059 -81 c26 -10 193 -28
1059 -115 434 -44 1089 -110 1335 -135 102 -11 408 -42 680 -70 773 -79 872
-90 914 -103 58 -19 65 -37 34 -84 -32 -47 -84 -137 -104 -180 -13 -31 -18
-33 -62 -33 -27 0 -64 -8 -85 -19 -20 -10 -57 -22 -81 -25 -25 -4 -73 -18
-108 -32 -98 -39 -110 -38 -1013 51 -302 30 -606 62 -675 70 -69 8 -352 37
-630 65 -278 28 -586 60 -685 71 -99 11 -281 30 -405 44 -196 20 -292 37 -452
76 -48 12 -54 33 -28 110 30 89 72 166 123 228 73 87 116 106 183 81z m5011
-1002 c-3 -7 -5 -2 -5 12 0 14 2 19 5 13 2 -7 2 -19 0 -25z m-3982 -488 c132
-11 283 -24 335 -30 52 -6 136 -15 185 -20 335 -37 792 -100 1045 -145 74 -13
191 -34 260 -45 508 -85 636 -127 764 -253 84 -83 127 -153 171 -278 78 -224
108 -565 109 -1264 1 -585 -16 -820 -72 -1005 -47 -155 -124 -246 -267 -314
-81 -39 -94 -44 -135 -50 -19 -2 -69 -9 -110 -15 -79 -12 -283 0 -370 20 -25
6 -83 14 -130 18 -104 10 -308 44 -456 77 -61 13 -122 24 -135 24 -14 0 -57 9
-97 20 -40 11 -91 20 -115 19 -54 -1 -181 27 -222 48 -18 10 -98 26 -260 52
-33 6 -82 14 -110 19 -27 6 -84 16 -125 23 -41 7 -79 14 -85 15 -5 2 -32 7
-60 13 -147 29 -195 40 -245 55 -30 9 -82 23 -114 32 -33 8 -89 30 -125 49
-36 19 -69 35 -74 35 -14 0 -125 79 -165 118 -50 48 -114 136 -136 187 -10 22
-29 61 -42 86 -13 26 -24 56 -24 66 0 11 -9 58 -21 103 -17 70 -19 101 -14
199 5 105 13 161 47 343 6 32 14 56 18 53 10 -6 20 269 20 560 0 224 19 614
36 728 10 69 54 218 80 274 26 54 117 147 163 165 107 43 153 45 476 18z
m4725 -2425 c0 -8 -4 -15 -10 -15 -5 0 -7 7 -4 15 4 8 8 15 10 15 2 0 4 -7 4
-15z m-3732 -877 c32 -32 -7 -50 -60 -29 -13 5 -36 13 -53 17 l-30 7 30 7 c48
12 100 11 113 -2z"/>
<path d="M3105 5054 c-33 -15 -84 -37 -113 -50 -29 -13 -55 -24 -57 -24 -2 0
-48 -21 -102 -46 -54 -25 -125 -57 -157 -71 -61 -25 -217 -98 -294 -136 -23
-11 -41 -24 -40 -27 8 -17 378 -318 520 -423 73 -53 81 -57 134 -57 67 0 151
26 164 51 25 46 39 798 15 805 -5 2 -37 -8 -70 -22z"/>
</g>
</svg>
